<?xml version="1.0" encoding="UTF-8" standalone="no"?>
<!DOCTYPE svg PUBLIC "-//W3C//DTD SVG 1.1//EN"
 "http://www.w3.org/Graphics/SVG/1.1/DTD/svg11.dtd">
<!-- Generated by graphviz version 8.0.5 (0)
 -->
<!-- Title: sqliteschema Pages: 1 -->
<svg width="713pt" height="1434pt"
 viewBox="0.00 0.00 713.00 1434.00" xmlns="http://www.w3.org/2000/svg" xmlns:xlink="http://www.w3.org/1999/xlink">
<g id="graph0" class="graph" transform="scale(1 1) rotate(0) translate(4 1430)">
<title>sqliteschema</title>
<polygon fill="white" stroke="none" points="-4,4 -4,-1430 709,-1430 709,4 -4,4"/>
<!-- Allocation -->
<g id="node1" class="node">
<title>Allocation</title>
<polygon fill="none" stroke="black" points="103.5,-71 103.5,-93 303.5,-93 303.5,-71 103.5,-71"/>
<text text-anchor="start" x="175" y="-77.7" font-family="Times,serif" text-decoration="underline" font-size="14.00">Allocation</text>
<polygon fill="none" stroke="black" points="103.5,-49 103.5,-71 149.5,-71 149.5,-49 103.5,-49"/>
<text text-anchor="start" x="106.25" y="-54.7" font-family="Times,serif" font-size="14.00">allocID</text>
<polygon fill="none" stroke="black" points="149.5,-49 149.5,-71 207.5,-71 207.5,-49 149.5,-49"/>
<text text-anchor="start" x="152.25" y="-54.7" font-family="Times,serif" font-size="14.00">username</text>
<polygon fill="none" stroke="black" points="207.5,-49 207.5,-71 252.5,-71 252.5,-49 207.5,-49"/>
<text text-anchor="start" x="212.38" y="-54.7" font-family="Times,serif" font-size="14.00">unitID</text>
<polygon fill="none" stroke="black" points="252.5,-49 252.5,-71 303.5,-71 303.5,-49 252.5,-49"/>
<text text-anchor="start" x="255.5" y="-54.7" font-family="Times,serif" font-size="14.00">duration</text>
<polygon fill="none" stroke="black" points="103.5,-27 103.5,-49 149.5,-49 149.5,-27 103.5,-27"/>
<text text-anchor="start" x="109.25" y="-32.7" font-family="Times,serif" font-size="14.00">tuning</text>
<polygon fill="none" stroke="black" points="149.5,-27 149.5,-49 207.5,-49 207.5,-27 149.5,-27"/>
<text text-anchor="start" x="167.62" y="-32.7" font-family="Times,serif" font-size="14.00">font</text>
<polygon fill="none" stroke="black" points="207.5,-27 207.5,-49 252.5,-49 252.5,-27 207.5,-27"/>
<text text-anchor="start" x="210.12" y="-32.7" font-family="Times,serif" font-size="14.00">tabtype</text>
<polygon fill="none" stroke="black" points="252.5,-27 252.5,-49 303.5,-49 303.5,-27 252.5,-27"/>
<text text-anchor="start" x="257" y="-32.7" font-family="Times,serif" font-size="14.00">tabcode</text>
<polygon fill="none" stroke="black" points="103.5,-5 103.5,-27 149.5,-27 149.5,-5 103.5,-5"/>
<text text-anchor="start" x="114.12" y="-10.7" font-family="Times,serif" font-size="14.00">state</text>
<polygon fill="none" stroke="black" points="149.5,-5 149.5,-27 207.5,-27 207.5,-5 149.5,-5"/>
<text text-anchor="start" x="154.12" y="-10.7" font-family="Times,serif" font-size="14.00">finalFlag</text>
<polygon fill="none" stroke="black" points="102.5,-4 102.5,-94 304.5,-94 304.5,-4 102.5,-4"/>
</g>
<!-- Bugs -->
<g id="node2" class="node">
<title>Bugs</title>
<polygon fill="none" stroke="black" points="62,-165 62,-187 345,-187 345,-165 62,-165"/>
<text text-anchor="start" x="189.62" y="-171.7" font-family="Times,serif" text-decoration="underline" font-size="14.00">Bugs</text>
<polygon fill="none" stroke="black" points="62,-143 62,-165 108,-165 108,-143 62,-143"/>
<text text-anchor="start" x="64.75" y="-148.7" font-family="Times,serif" font-size="14.00">Bug ID</text>
<polygon fill="none" stroke="black" points="108,-143 108,-165 162,-165 162,-143 108,-143"/>
<text text-anchor="start" x="110.62" y="-148.7" font-family="Times,serif" font-size="14.00">Bug date</text>
<polygon fill="none" stroke="black" points="162,-143 162,-165 257,-165 257,-143 162,-143"/>
<text text-anchor="start" x="164.88" y="-148.7" font-family="Times,serif" font-size="14.00">Bug Description</text>
<polygon fill="none" stroke="black" points="257,-143 257,-165 345,-165 345,-143 257,-143"/>
<text text-anchor="start" x="259.75" y="-148.7" font-family="Times,serif" font-size="14.00">Affected Pages</text>
<polygon fill="none" stroke="black" points="62,-121 62,-143 108,-143 108,-121 62,-121"/>
<text text-anchor="start" x="68.5" y="-126.7" font-family="Times,serif" font-size="14.00">Status</text>
<polygon fill="none" stroke="black" points="108,-121 108,-143 162,-143 162,-121 108,-121"/>
<text text-anchor="start" x="114.38" y="-126.7" font-family="Times,serif" font-size="14.00">Priority</text>
<polygon fill="none" stroke="black" points="162,-121 162,-143 257,-143 257,-121 162,-121"/>
<text text-anchor="start" x="178.38" y="-126.7" font-family="Times,serif" font-size="14.00">User Name</text>
<polygon fill="none" stroke="black" points="61,-120 61,-188 346,-188 346,-120 61,-120"/>
</g>
<!-- sqlite_sequence -->
<g id="node3" class="node">
<title>sqlite_sequence</title>
<polygon fill="none" stroke="black" points="158,-237 158,-259 249,-259 249,-237 158,-237"/>
<text text-anchor="start" x="160.75" y="-243.7" font-family="Times,serif" text-decoration="underline" font-size="14.00">sqlite_sequence</text>
<polygon fill="none" stroke="black" points="158,-215 158,-237 209,-237 209,-215 158,-215"/>
<text text-anchor="start" x="168.5" y="-220.7" font-family="Times,serif" font-size="14.00">name</text>
<polygon fill="none" stroke="black" points="209,-215 209,-237 241,-237 241,-215 209,-215"/>
<text text-anchor="start" x="216" y="-220.7" font-family="Times,serif" font-size="14.00">seq</text>
<polygon fill="none" stroke="black" points="157,-214 157,-260 250,-260 250,-214 157,-214"/>
</g>
<!-- builder1 -->
<g id="node4" class="node">
<title>builder1</title>
<polygon fill="none" stroke="black" points="452,-356 452,-378 696,-378 696,-356 452,-356"/>
<text text-anchor="start" x="551.5" y="-362.7" font-family="Times,serif" text-decoration="underline" font-size="14.00">builder1</text>
<polygon fill="none" stroke="black" points="452,-334 452,-356 523,-356 523,-334 452,-334"/>
<text text-anchor="start" x="454.88" y="-339.7" font-family="Times,serif" font-size="14.00">Builder1 ID</text>
<polygon fill="none" stroke="black" points="523,-334 523,-356 565,-356 565,-334 523,-334"/>
<text text-anchor="start" x="530.12" y="-339.7" font-family="Times,serif" font-size="14.00">Type</text>
<polygon fill="none" stroke="black" points="565,-334 565,-356 627,-356 627,-334 565,-334"/>
<text text-anchor="start" x="567.88" y="-339.7" font-family="Times,serif" font-size="14.00">Data Type</text>
<polygon fill="none" stroke="black" points="627,-334 627,-356 696,-356 696,-334 627,-334"/>
<text text-anchor="start" x="630" y="-339.7" font-family="Times,serif" font-size="14.00">Description</text>
<polygon fill="none" stroke="black" points="452,-312 452,-334 523,-334 523,-312 452,-312"/>
<text text-anchor="start" x="460.5" y="-317.7" font-family="Times,serif" font-size="14.00">Summary</text>
<polygon fill="none" stroke="black" points="523,-312 523,-334 565,-334 565,-312 523,-312"/>
<text text-anchor="start" x="525.62" y="-317.7" font-family="Times,serif" font-size="14.00">Clause</text>
<polygon fill="none" stroke="black" points="565,-312 565,-334 627,-334 627,-312 565,-312"/>
<text text-anchor="start" x="577.62" y="-317.7" font-family="Times,serif" font-size="14.00">Search</text>
<polygon fill="none" stroke="black" points="451,-311 451,-379 697,-379 697,-311 451,-311"/>
</g>
<!-- builder2 -->
<g id="node5" class="node">
<title>builder2</title>
<polygon fill="none" stroke="black" points="87.5,-403 87.5,-425 319.5,-425 319.5,-403 87.5,-403"/>
<text text-anchor="start" x="181" y="-409.7" font-family="Times,serif" text-decoration="underline" font-size="14.00">builder2</text>
<polygon fill="none" stroke="black" points="87.5,-381 87.5,-403 158.5,-403 158.5,-381 87.5,-381"/>
<text text-anchor="start" x="90.38" y="-386.7" font-family="Times,serif" font-size="14.00">Builder2 ID</text>
<polygon fill="none" stroke="black" points="158.5,-381 158.5,-403 229.5,-403 229.5,-381 158.5,-381"/>
<text text-anchor="start" x="161.38" y="-386.7" font-family="Times,serif" font-size="14.00">Builder1 ID</text>
<polygon fill="none" stroke="black" points="229.5,-381 229.5,-403 265.5,-403 265.5,-381 229.5,-381"/>
<text text-anchor="start" x="232.5" y="-386.7" font-family="Times,serif" font-size="14.00">Stage</text>
<polygon fill="none" stroke="black" points="265.5,-381 265.5,-403 319.5,-403 319.5,-381 265.5,-381"/>
<text text-anchor="start" x="268.12" y="-386.7" font-family="Times,serif" font-size="14.00">Question</text>
<polygon fill="none" stroke="black" points="87.5,-359 87.5,-381 158.5,-381 158.5,-359 87.5,-359"/>
<text text-anchor="start" x="104.62" y="-364.7" font-family="Times,serif" font-size="14.00">Action</text>
<polygon fill="none" stroke="black" points="158.5,-359 158.5,-381 229.5,-381 229.5,-359 158.5,-359"/>
<text text-anchor="start" x="177.12" y="-364.7" font-family="Times,serif" font-size="14.00">Suffix</text>
<polygon fill="none" stroke="black" points="86.5,-358 86.5,-426 320.5,-426 320.5,-358 86.5,-358"/>
</g>
<!-- builder2&#45;&gt;builder1 -->
<g id="edge1" class="edge">
<title>builder2:Builder1 ID&#45;&gt;builder1:Builder1 ID</title>
<path fill="none" stroke="black" d="M229.4,-381.45C276.2,-368.22 362.44,-347.01 440.1,-345.13"/>
<polygon fill="black" stroke="black" points="440.04,-348.62 450,-345 439.96,-341.62 440.04,-348.62"/>
</g>
<!-- builder3 -->
<g id="node6" class="node">
<title>builder3</title>
<polygon fill="none" stroke="black" points="99.5,-309 99.5,-331 307.5,-331 307.5,-309 99.5,-309"/>
<text text-anchor="start" x="181" y="-315.7" font-family="Times,serif" text-decoration="underline" font-size="14.00">builder3</text>
<polygon fill="none" stroke="black" points="99.5,-287 99.5,-309 170.5,-309 170.5,-287 99.5,-287"/>
<text text-anchor="start" x="102.38" y="-292.7" font-family="Times,serif" font-size="14.00">Builder3 ID</text>
<polygon fill="none" stroke="black" points="170.5,-287 170.5,-309 241.5,-309 241.5,-287 170.5,-287"/>
<text text-anchor="start" x="173.38" y="-292.7" font-family="Times,serif" font-size="14.00">Builder1 ID</text>
<polygon fill="none" stroke="black" points="241.5,-287 241.5,-309 265.5,-309 265.5,-287 241.5,-287"/>
<text text-anchor="start" x="244.12" y="-292.7" font-family="Times,serif" font-size="14.00">Var</text>
<polygon fill="none" stroke="black" points="265.5,-287 265.5,-309 307.5,-309 307.5,-287 265.5,-287"/>
<text text-anchor="start" x="268.12" y="-292.7" font-family="Times,serif" font-size="14.00">Action</text>
<polygon fill="none" stroke="black" points="98.5,-286 98.5,-332 308.5,-332 308.5,-286 98.5,-286"/>
</g>
<!-- builder3&#45;&gt;builder1 -->
<g id="edge2" class="edge">
<title>builder3:Builder1 ID&#45;&gt;builder1:Builder1 ID</title>
<path fill="none" stroke="black" d="M206.5,-286C206.5,-261.55 292.58,-281.95 316.5,-287 376.46,-299.66 385.03,-339.89 440.14,-344.56"/>
<polygon fill="black" stroke="black" points="439.87,-348.09 450,-345 440.15,-341.09 439.87,-348.09"/>
</g>
<!-- Users -->
<g id="node7" class="node">
<title>Users</title>
<polygon fill="none" stroke="black" points="39.5,-475 39.5,-497 367.5,-497 367.5,-475 39.5,-475"/>
<text text-anchor="start" x="188.12" y="-481.7" font-family="Times,serif" text-decoration="underline" font-size="14.00">Users</text>
<polygon fill="none" stroke="black" points="39.5,-453 39.5,-475 107.5,-475 107.5,-453 39.5,-453"/>
<text text-anchor="start" x="42.38" y="-458.7" font-family="Times,serif" font-size="14.00">User Name</text>
<polygon fill="none" stroke="black" points="107.5,-453 107.5,-475 214.5,-475 214.5,-453 107.5,-453"/>
<text text-anchor="start" x="110.38" y="-458.7" font-family="Times,serif" font-size="14.00">User Displayname</text>
<polygon fill="none" stroke="black" points="214.5,-453 214.5,-475 271.5,-475 271.5,-453 214.5,-453"/>
<text text-anchor="start" x="217.12" y="-458.7" font-family="Times,serif" font-size="14.00">Password</text>
<polygon fill="none" stroke="black" points="271.5,-453 271.5,-475 367.5,-475 367.5,-453 271.5,-453"/>
<text text-anchor="start" x="274.12" y="-458.7" font-family="Times,serif" font-size="14.00">Permission level</text>
<polygon fill="none" stroke="black" points="38.5,-452 38.5,-498 368.5,-498 368.5,-452 38.5,-452"/>
</g>
<!-- Face -->
<g id="node8" class="node">
<title>Face</title>
<polygon fill="none" stroke="black" points="102.5,-547 102.5,-569 304.5,-569 304.5,-547 102.5,-547"/>
<text text-anchor="start" x="190.75" y="-553.7" font-family="Times,serif" text-decoration="underline" font-size="14.00">Face</text>
<polygon fill="none" stroke="black" points="102.5,-525 102.5,-547 144.5,-547 144.5,-525 102.5,-525"/>
<text text-anchor="start" x="105.12" y="-530.7" font-family="Times,serif" font-size="14.00">faceID</text>
<polygon fill="none" stroke="black" points="144.5,-525 144.5,-547 193.5,-547 193.5,-525 144.5,-525"/>
<text text-anchor="start" x="147.25" y="-530.7" font-family="Times,serif" font-size="14.00">batchID</text>
<polygon fill="none" stroke="black" points="193.5,-525 193.5,-547 277.5,-547 277.5,-525 193.5,-525"/>
<text text-anchor="start" x="196.12" y="-530.7" font-family="Times,serif" font-size="14.00">imageNumber</text>
<polygon fill="none" stroke="black" points="277.5,-525 277.5,-547 304.5,-547 304.5,-525 277.5,-525"/>
<text text-anchor="start" x="280.5" y="-530.7" font-family="Times,serif" font-size="14.00">part</text>
<polygon fill="none" stroke="black" points="101.5,-524 101.5,-570 305.5,-570 305.5,-524 101.5,-524"/>
</g>
<!-- McF_inv -->
<g id="node9" class="node">
<title>McF_inv</title>
<polygon fill="none" stroke="black" points="54,-641 54,-663 353,-663 353,-641 54,-641"/>
<text text-anchor="start" x="178.38" y="-647.7" font-family="Times,serif" text-decoration="underline" font-size="14.00">McF_inv</text>
<polygon fill="none" stroke="black" points="54,-619 54,-641 159,-641 159,-619 54,-619"/>
<text text-anchor="start" x="84.38" y="-624.7" font-family="Times,serif" font-size="14.00">McF ID</text>
<polygon fill="none" stroke="black" points="159,-619 159,-641 235,-641 235,-619 159,-619"/>
<text text-anchor="start" x="184.25" y="-624.7" font-family="Times,serif" font-size="14.00">folio</text>
<polygon fill="none" stroke="black" points="235,-619 235,-641 294,-641 294,-619 235,-619"/>
<text text-anchor="start" x="240.12" y="-624.7" font-family="Times,serif" font-size="14.00">Graphics</text>
<polygon fill="none" stroke="black" points="294,-619 294,-641 353,-641 353,-619 294,-619"/>
<text text-anchor="start" x="301.75" y="-624.7" font-family="Times,serif" font-size="14.00">systems</text>
<polygon fill="none" stroke="black" points="54,-597 54,-619 159,-619 159,-597 54,-597"/>
<text text-anchor="start" x="57" y="-602.7" font-family="Times,serif" font-size="14.00">original ascription</text>
<polygon fill="none" stroke="black" points="159,-597 159,-619 235,-619 235,-597 159,-597"/>
<text text-anchor="start" x="161.75" y="-602.7" font-family="Times,serif" font-size="14.00">standard title</text>
<polygon fill="none" stroke="black" points="235,-597 235,-619 294,-619 294,-597 235,-597"/>
<text text-anchor="start" x="237.88" y="-602.7" font-family="Times,serif" font-size="14.00">composer</text>
<polygon fill="none" stroke="black" points="294,-597 294,-619 353,-619 353,-597 294,-597"/>
<text text-anchor="start" x="296.88" y="-602.7" font-family="Times,serif" font-size="14.00">cons/cogs</text>
<polygon fill="none" stroke="black" points="53,-596 53,-664 354,-664 354,-596 53,-596"/>
</g>
<!-- Notation_examples -->
<g id="node10" class="node">
<title>Notation_examples</title>
<polygon fill="none" stroke="black" points="9,-735 9,-757 398,-757 398,-735 9,-735"/>
<text text-anchor="start" x="150.62" y="-741.7" font-family="Times,serif" text-decoration="underline" font-size="14.00">Notation_examples</text>
<polygon fill="none" stroke="black" points="9,-713 9,-735 62,-735 62,-713 9,-713"/>
<text text-anchor="start" x="11.88" y="-718.7" font-family="Times,serif" font-size="14.00">Notation</text>
<polygon fill="none" stroke="black" points="62,-713 62,-735 182,-735 182,-713 62,-713"/>
<text text-anchor="start" x="65" y="-718.7" font-family="Times,serif" font-size="14.00">Notation_description</text>
<polygon fill="none" stroke="black" points="182,-713 182,-735 288,-735 288,-713 182,-713"/>
<text text-anchor="start" x="216.25" y="-718.7" font-family="Times,serif" font-size="14.00">Source</text>
<polygon fill="none" stroke="black" points="288,-713 288,-735 398,-735 398,-713 288,-713"/>
<text text-anchor="start" x="290.88" y="-718.7" font-family="Times,serif" font-size="14.00">Source_description</text>
<polygon fill="none" stroke="black" points="9,-691 9,-713 62,-713 62,-691 9,-691"/>
<text text-anchor="start" x="15.62" y="-696.7" font-family="Times,serif" font-size="14.00">CD_ID</text>
<polygon fill="none" stroke="black" points="62,-691 62,-713 182,-713 182,-691 62,-691"/>
<text text-anchor="start" x="96.5" y="-696.7" font-family="Times,serif" font-size="14.00">Filename</text>
<polygon fill="none" stroke="black" points="182,-691 182,-713 288,-713 288,-691 182,-691"/>
<text text-anchor="start" x="184.75" y="-696.7" font-family="Times,serif" font-size="14.00">Location_on_page</text>
<polygon fill="none" stroke="black" points="288,-691 288,-713 398,-713 398,-691 288,-691"/>
<text text-anchor="start" x="313" y="-696.7" font-family="Times,serif" font-size="14.00">Comments</text>
<polygon fill="none" stroke="black" points="8,-690 8,-758 399,-758 399,-690 8,-690"/>
</g>
<!-- Person_Cite -->
<g id="node11" class="node">
<title>Person_Cite</title>
<polygon fill="none" stroke="black" points="58.5,-807 58.5,-829 348.5,-829 348.5,-807 58.5,-807"/>
<text text-anchor="start" x="170.5" y="-813.7" font-family="Times,serif" text-decoration="underline" font-size="14.00">Person_Cite</text>
<polygon fill="none" stroke="black" points="58.5,-785 58.5,-807 118.5,-807 118.5,-785 58.5,-785"/>
<text text-anchor="start" x="61.12" y="-790.7" font-family="Times,serif" font-size="14.00">Person ID</text>
<polygon fill="none" stroke="black" points="118.5,-785 118.5,-807 224.5,-807 224.5,-785 118.5,-785"/>
<text text-anchor="start" x="121.25" y="-790.7" font-family="Times,serif" font-size="14.00">PersonCite Initials</text>
<polygon fill="none" stroke="black" points="224.5,-785 224.5,-807 348.5,-807 348.5,-785 224.5,-785"/>
<text text-anchor="start" x="227.25" y="-790.7" font-family="Times,serif" font-size="14.00">PersonCite Institution</text>
<polygon fill="none" stroke="black" points="57.5,-784 57.5,-830 349.5,-830 349.5,-784 57.5,-784"/>
</g>
<!-- Unit -->
<g id="node12" class="node">
<title>Unit</title>
<polygon fill="none" stroke="black" points="66,-923 66,-945 341,-945 341,-923 66,-923"/>
<text text-anchor="start" x="191.5" y="-929.7" font-family="Times,serif" text-decoration="underline" font-size="14.00">Unit</text>
<polygon fill="none" stroke="black" points="66,-901 66,-923 129,-923 129,-901 66,-901"/>
<text text-anchor="start" x="79.88" y="-906.7" font-family="Times,serif" font-size="14.00">unitID</text>
<polygon fill="none" stroke="black" points="129,-901 129,-923 180,-923 180,-901 129,-901"/>
<text text-anchor="start" x="136.12" y="-906.7" font-family="Times,serif" font-size="14.00">faceID</text>
<polygon fill="none" stroke="black" points="180,-901 180,-923 269,-923 269,-901 180,-901"/>
<text text-anchor="start" x="182.88" y="-906.7" font-family="Times,serif" font-size="14.00">systemNumber</text>
<polygon fill="none" stroke="black" points="269,-901 269,-923 341,-923 341,-901 269,-901"/>
<text text-anchor="start" x="281" y="-906.7" font-family="Times,serif" font-size="14.00">prevUnit</text>
<polygon fill="none" stroke="black" points="66,-879 66,-901 129,-901 129,-879 66,-879"/>
<text text-anchor="start" x="80.25" y="-884.7" font-family="Times,serif" font-size="14.00">tuning</text>
<polygon fill="none" stroke="black" points="129,-879 129,-901 180,-901 180,-879 129,-879"/>
<text text-anchor="start" x="143.62" y="-884.7" font-family="Times,serif" font-size="14.00">font</text>
<polygon fill="none" stroke="black" points="180,-879 180,-901 269,-901 269,-879 180,-879"/>
<text text-anchor="start" x="204.62" y="-884.7" font-family="Times,serif" font-size="14.00">tabtype</text>
<polygon fill="none" stroke="black" points="269,-879 269,-901 341,-901 341,-879 269,-879"/>
<text text-anchor="start" x="272" y="-884.7" font-family="Times,serif" font-size="14.00">ocr_tabcode</text>
<polygon fill="none" stroke="black" points="66,-857 66,-879 129,-879 129,-857 66,-857"/>
<text text-anchor="start" x="68.62" y="-862.7" font-family="Times,serif" font-size="14.00">imagePath</text>
<polygon fill="none" stroke="black" points="129,-857 129,-879 180,-879 180,-857 129,-857"/>
<text text-anchor="start" x="132" y="-862.7" font-family="Times,serif" font-size="14.00">duration</text>
<polygon fill="none" stroke="black" points="65,-856 65,-946 342,-946 342,-856 65,-856"/>
</g>
<!-- RISM -->
<g id="node13" class="node">
<title>RISM</title>
<polygon fill="none" stroke="black" points="58,-995 58,-1017 349,-1017 349,-995 58,-995"/>
<text text-anchor="start" x="186.62" y="-1001.7" font-family="Times,serif" text-decoration="underline" font-size="14.00">RISM</text>
<polygon fill="none" stroke="black" points="58,-973 58,-995 115,-995 115,-973 58,-973"/>
<text text-anchor="start" x="60.62" y="-978.7" font-family="Times,serif" font-size="14.00">RISM ID</text>
<polygon fill="none" stroke="black" points="115,-973 115,-995 199,-995 199,-973 115,-973"/>
<text text-anchor="start" x="118" y="-978.7" font-family="Times,serif" font-size="14.00">RISM Library</text>
<polygon fill="none" stroke="black" points="199,-973 199,-995 349,-995 349,-973 199,-973"/>
<text text-anchor="start" x="201.62" y="-978.7" font-family="Times,serif" font-size="14.00">RISM Library Description</text>
<polygon fill="none" stroke="black" points="57,-972 57,-1018 350,-1018 350,-972 57,-972"/>
</g>
<!-- User_Groups -->
<g id="node14" class="node">
<title>User_Groups</title>
<polygon fill="none" stroke="black" points="98.5,-1139 98.5,-1161 308.5,-1161 308.5,-1139 98.5,-1139"/>
<text text-anchor="start" x="167.5" y="-1145.7" font-family="Times,serif" text-decoration="underline" font-size="14.00">User_Groups</text>
<polygon fill="none" stroke="black" points="98.5,-1117 98.5,-1139 182.5,-1139 182.5,-1117 98.5,-1117"/>
<text text-anchor="start" x="101.5" y="-1122.7" font-family="Times,serif" font-size="14.00">UserGroup ID</text>
<polygon fill="none" stroke="black" points="182.5,-1117 182.5,-1139 250.5,-1139 250.5,-1117 182.5,-1117"/>
<text text-anchor="start" x="185.38" y="-1122.7" font-family="Times,serif" font-size="14.00">User Name</text>
<polygon fill="none" stroke="black" points="250.5,-1117 250.5,-1139 308.5,-1139 308.5,-1117 250.5,-1117"/>
<text text-anchor="start" x="253.25" y="-1122.7" font-family="Times,serif" font-size="14.00">Group ID</text>
<polygon fill="none" stroke="black" points="97.5,-1116 97.5,-1162 309.5,-1162 309.5,-1116 97.5,-1116"/>
</g>
<!-- Groups -->
<g id="node15" class="node">
<title>Groups</title>
<polygon fill="none" stroke="black" points="453,-1103 453,-1125 695,-1125 695,-1103 453,-1103"/>
<text text-anchor="start" x="554.12" y="-1109.7" font-family="Times,serif" text-decoration="underline" font-size="14.00">Groups</text>
<polygon fill="none" stroke="black" points="453,-1081 453,-1103 511,-1103 511,-1081 453,-1081"/>
<text text-anchor="start" x="455.75" y="-1086.7" font-family="Times,serif" font-size="14.00">Group ID</text>
<polygon fill="none" stroke="black" points="511,-1081 511,-1103 588,-1103 588,-1081 511,-1081"/>
<text text-anchor="start" x="513.88" y="-1086.7" font-family="Times,serif" font-size="14.00">Group Name</text>
<polygon fill="none" stroke="black" points="588,-1081 588,-1103 695,-1103 695,-1081 588,-1081"/>
<text text-anchor="start" x="590.88" y="-1086.7" font-family="Times,serif" font-size="14.00">Group Description</text>
<polygon fill="none" stroke="black" points="452,-1080 452,-1126 696,-1126 696,-1080 452,-1080"/>
</g>
<!-- User_Groups&#45;&gt;Groups -->
<g id="edge3" class="edge">
<title>User_Groups:Group ID&#45;&gt;Groups:Group ID</title>
<path fill="none" stroke="black" d="M279.5,-1116C279.5,-1101.76 392.97,-1105.42 407,-1103 423.17,-1100.21 429.07,-1094.88 441.22,-1092.83"/>
<polygon fill="black" stroke="black" points="441.3,-1096.26 451,-1092 440.76,-1089.28 441.3,-1096.26"/>
</g>
<!-- Editions2 -->
<g id="node16" class="node">
<title>Editions2</title>
<polygon fill="none" stroke="black" points="52,-1067 52,-1089 355,-1089 355,-1067 52,-1067"/>
<text text-anchor="start" x="177.62" y="-1073.7" font-family="Times,serif" text-decoration="underline" font-size="14.00">Editions2</text>
<polygon fill="none" stroke="black" points="52,-1045 52,-1067 115,-1067 115,-1045 52,-1045"/>
<text text-anchor="start" x="54.62" y="-1050.7" font-family="Times,serif" font-size="14.00">Edition ID</text>
<polygon fill="none" stroke="black" points="115,-1045 115,-1067 183,-1067 183,-1045 115,-1045"/>
<text text-anchor="start" x="117.88" y="-1050.7" font-family="Times,serif" font-size="14.00">User Name</text>
<polygon fill="none" stroke="black" points="183,-1045 183,-1067 241,-1067 241,-1045 183,-1045"/>
<text text-anchor="start" x="185.75" y="-1050.7" font-family="Times,serif" font-size="14.00">Group ID</text>
<polygon fill="none" stroke="black" points="241,-1045 241,-1067 355,-1067 355,-1045 241,-1045"/>
<text text-anchor="start" x="243.62" y="-1050.7" font-family="Times,serif" font-size="14.00">Editions Comments</text>
<polygon fill="none" stroke="black" points="51,-1044 51,-1090 356,-1090 356,-1044 51,-1044"/>
</g>
<!-- Editions2&#45;&gt;Groups -->
<g id="edge4" class="edge">
<title>Editions2:Group ID&#45;&gt;Groups:Group ID</title>
<path fill="none" stroke="black" d="M212.5,-1044C212.5,-1027.17 347.68,-1040.86 364,-1045 403.12,-1054.93 407.2,-1085.72 441.04,-1091.17"/>
<polygon fill="black" stroke="black" points="440.76,-1094.73 451,-1092 441.29,-1087.75 440.76,-1094.73"/>
</g>
<!-- Contributor -->
<g id="node17" class="node">
<title>Contributor</title>
<polygon fill="none" stroke="black" points="128,-1211 128,-1233 279,-1233 279,-1211 128,-1211"/>
<text text-anchor="start" x="172" y="-1217.7" font-family="Times,serif" text-decoration="underline" font-size="14.00">Contributor</text>
<polygon fill="none" stroke="black" points="128,-1189 128,-1211 186,-1211 186,-1189 128,-1189"/>
<text text-anchor="start" x="130.75" y="-1194.7" font-family="Times,serif" font-size="14.00">username</text>
<polygon fill="none" stroke="black" points="186,-1189 186,-1211 222,-1211 222,-1189 186,-1189"/>
<text text-anchor="start" x="189" y="-1194.7" font-family="Times,serif" font-size="14.00">name</text>
<polygon fill="none" stroke="black" points="222,-1189 222,-1211 279,-1211 279,-1189 222,-1189"/>
<text text-anchor="start" x="225" y="-1194.7" font-family="Times,serif" font-size="14.00">password</text>
<polygon fill="none" stroke="black" points="127,-1188 127,-1234 280,-1234 280,-1188 127,-1188"/>
</g>
<!-- Batch -->
<g id="node18" class="node">
<title>Batch</title>
<polygon fill="none" stroke="black" points="116,-1283 116,-1305 291,-1305 291,-1283 116,-1283"/>
<text text-anchor="start" x="187.75" y="-1289.7" font-family="Times,serif" text-decoration="underline" font-size="14.00">Batch</text>
<polygon fill="none" stroke="black" points="116,-1261 116,-1283 165,-1283 165,-1261 116,-1261"/>
<text text-anchor="start" x="118.75" y="-1266.7" font-family="Times,serif" font-size="14.00">batchID</text>
<polygon fill="none" stroke="black" points="165,-1261 165,-1283 231,-1283 231,-1261 165,-1261"/>
<text text-anchor="start" x="168" y="-1266.7" font-family="Times,serif" font-size="14.00">description</text>
<polygon fill="none" stroke="black" points="231,-1261 231,-1283 291,-1283 291,-1261 231,-1261"/>
<text text-anchor="start" x="233.62" y="-1266.7" font-family="Times,serif" font-size="14.00">classmark</text>
<polygon fill="none" stroke="black" points="115,-1260 115,-1306 292,-1306 292,-1260 115,-1260"/>
</g>
<!-- inventory -->
<g id="node19" class="node">
<title>inventory</title>
<polygon fill="none" stroke="black" points="49,-1399 49,-1421 358,-1421 358,-1399 49,-1399"/>
<text text-anchor="start" x="177.62" y="-1405.7" font-family="Times,serif" text-decoration="underline" font-size="14.00">inventory</text>
<polygon fill="none" stroke="black" points="49,-1377 49,-1399 124,-1399 124,-1377 49,-1377"/>
<text text-anchor="start" x="51.62" y="-1382.7" font-family="Times,serif" font-size="14.00">inventory ID</text>
<polygon fill="none" stroke="black" points="124,-1377 124,-1399 199,-1399 199,-1377 124,-1377"/>
<text text-anchor="start" x="148.75" y="-1382.7" font-family="Times,serif" font-size="14.00">Title</text>
<polygon fill="none" stroke="black" points="199,-1377 199,-1399 295,-1399 295,-1377 199,-1377"/>
<text text-anchor="start" x="235.75" y="-1382.7" font-family="Times,serif" font-size="14.00">Key</text>
<polygon fill="none" stroke="black" points="295,-1377 295,-1399 358,-1399 358,-1377 295,-1377"/>
<text text-anchor="start" x="297.62" y="-1382.7" font-family="Times,serif" font-size="14.00">Pagination</text>
<polygon fill="none" stroke="black" points="49,-1355 49,-1377 124,-1377 124,-1355 49,-1355"/>
<text text-anchor="start" x="58.75" y="-1360.7" font-family="Times,serif" font-size="14.00">Start Page</text>
<polygon fill="none" stroke="black" points="124,-1355 124,-1377 199,-1377 199,-1355 124,-1355"/>
<text text-anchor="start" x="126.62" y="-1360.7" font-family="Times,serif" font-size="14.00">Start System</text>
<polygon fill="none" stroke="black" points="199,-1355 199,-1377 295,-1377 295,-1355 199,-1355"/>
<text text-anchor="start" x="201.62" y="-1360.7" font-family="Times,serif" font-size="14.00">Start Lastsystem</text>
<polygon fill="none" stroke="black" points="295,-1355 295,-1377 358,-1377 358,-1355 295,-1355"/>
<text text-anchor="start" x="299.12" y="-1360.7" font-family="Times,serif" font-size="14.00">Start Item</text>
<polygon fill="none" stroke="black" points="49,-1333 49,-1355 124,-1355 124,-1333 49,-1333"/>
<text text-anchor="start" x="60.62" y="-1338.7" font-family="Times,serif" font-size="14.00">End Page</text>
<polygon fill="none" stroke="black" points="124,-1333 124,-1355 199,-1355 199,-1333 124,-1333"/>
<text text-anchor="start" x="128.5" y="-1338.7" font-family="Times,serif" font-size="14.00">End System</text>
<polygon fill="none" stroke="black" points="199,-1333 199,-1355 295,-1355 295,-1333 199,-1333"/>
<text text-anchor="start" x="203.5" y="-1338.7" font-family="Times,serif" font-size="14.00">End Lastsystem</text>
<polygon fill="none" stroke="black" points="295,-1333 295,-1355 358,-1355 358,-1333 295,-1333"/>
<text text-anchor="start" x="301" y="-1338.7" font-family="Times,serif" font-size="14.00">End Item</text>
<polygon fill="none" stroke="black" points="48,-1332 48,-1422 359,-1422 359,-1332 48,-1332"/>
</g>
</g>
</svg>
