<?xml version="1.0" encoding="UTF-8" standalone="no"?>
<!DOCTYPE svg PUBLIC "-//W3C//DTD SVG 1.1//EN"
 "http://www.w3.org/Graphics/SVG/1.1/DTD/svg11.dtd">
<!-- Generated by graphviz version 8.0.5 (0)
 -->
<!-- Title: sqliteschema Pages: 1 -->
<svg width="613pt" height="1654pt"
 viewBox="0.00 0.00 613.00 1654.00" xmlns="http://www.w3.org/2000/svg" xmlns:xlink="http://www.w3.org/1999/xlink">
<g id="graph0" class="graph" transform="scale(1 1) rotate(0) translate(4 1650)">
<title>sqliteschema</title>
<polygon fill="white" stroke="none" points="-4,4 -4,-1650 609,-1650 609,4 -4,4"/>
<!-- Allocation -->
<g id="node1" class="node">
<title>Allocation</title>
<polygon fill="none" stroke="black" points="78,-93 78,-115 231,-115 231,-93 78,-93"/>
<text text-anchor="start" x="126" y="-99.7" font-family="Times,serif" text-decoration="underline" font-size="14.00">Allocation</text>
<polygon fill="none" stroke="black" points="78,-71 78,-93 132,-93 132,-71 78,-71"/>
<text text-anchor="start" x="84.75" y="-76.7" font-family="Times,serif" font-size="14.00">allocID</text>
<polygon fill="none" stroke="black" points="132,-71 132,-93 190,-93 190,-71 132,-71"/>
<text text-anchor="start" x="134.75" y="-76.7" font-family="Times,serif" font-size="14.00">username</text>
<polygon fill="none" stroke="black" points="190,-71 190,-93 231,-93 231,-71 190,-71"/>
<text text-anchor="start" x="192.88" y="-76.7" font-family="Times,serif" font-size="14.00">unitID</text>
<polygon fill="none" stroke="black" points="78,-49 78,-71 132,-71 132,-49 78,-49"/>
<text text-anchor="start" x="82.5" y="-54.7" font-family="Times,serif" font-size="14.00">duration</text>
<polygon fill="none" stroke="black" points="132,-49 132,-71 190,-71 190,-49 132,-49"/>
<text text-anchor="start" x="143.75" y="-54.7" font-family="Times,serif" font-size="14.00">tuning</text>
<polygon fill="none" stroke="black" points="190,-49 190,-71 231,-71 231,-49 190,-49"/>
<text text-anchor="start" x="199.62" y="-54.7" font-family="Times,serif" font-size="14.00">font</text>
<polygon fill="none" stroke="black" points="78,-27 78,-49 132,-49 132,-27 78,-27"/>
<text text-anchor="start" x="85.12" y="-32.7" font-family="Times,serif" font-size="14.00">tabtype</text>
<polygon fill="none" stroke="black" points="132,-27 132,-49 190,-49 190,-27 132,-27"/>
<text text-anchor="start" x="140" y="-32.7" font-family="Times,serif" font-size="14.00">tabcode</text>
<polygon fill="none" stroke="black" points="190,-27 190,-49 231,-49 231,-27 190,-27"/>
<text text-anchor="start" x="198.12" y="-32.7" font-family="Times,serif" font-size="14.00">state</text>
<polygon fill="none" stroke="black" points="78,-5 78,-27 132,-27 132,-5 78,-5"/>
<text text-anchor="start" x="80.62" y="-10.7" font-family="Times,serif" font-size="14.00">finalFlag</text>
<polygon fill="none" stroke="black" points="77,-4 77,-116 232,-116 232,-4 77,-4"/>
</g>
<!-- Bugs -->
<g id="node2" class="node">
<title>Bugs</title>
<polygon fill="none" stroke="black" points="36,-209 36,-231 273,-231 273,-209 36,-209"/>
<text text-anchor="start" x="140.62" y="-215.7" font-family="Times,serif" text-decoration="underline" font-size="14.00">Bugs</text>
<polygon fill="none" stroke="black" points="36,-187 36,-209 124,-209 124,-187 36,-187"/>
<text text-anchor="start" x="59.75" y="-192.7" font-family="Times,serif" font-size="14.00">Bug ID</text>
<polygon fill="none" stroke="black" points="124,-187 124,-209 178,-209 178,-187 124,-187"/>
<text text-anchor="start" x="126.62" y="-192.7" font-family="Times,serif" font-size="14.00">Bug date</text>
<polygon fill="none" stroke="black" points="178,-187 178,-209 273,-209 273,-187 178,-187"/>
<text text-anchor="start" x="180.88" y="-192.7" font-family="Times,serif" font-size="14.00">Bug Description</text>
<polygon fill="none" stroke="black" points="36,-165 36,-187 124,-187 124,-165 36,-165"/>
<text text-anchor="start" x="38.75" y="-170.7" font-family="Times,serif" font-size="14.00">Affected Pages</text>
<polygon fill="none" stroke="black" points="124,-165 124,-187 178,-187 178,-165 124,-165"/>
<text text-anchor="start" x="134.5" y="-170.7" font-family="Times,serif" font-size="14.00">Status</text>
<polygon fill="none" stroke="black" points="178,-165 178,-187 273,-187 273,-165 178,-165"/>
<text text-anchor="start" x="204.88" y="-170.7" font-family="Times,serif" font-size="14.00">Priority</text>
<polygon fill="none" stroke="black" points="36,-143 36,-165 124,-165 124,-143 36,-143"/>
<text text-anchor="start" x="48.88" y="-148.7" font-family="Times,serif" font-size="14.00">User Name</text>
<polygon fill="none" stroke="black" points="35,-142 35,-232 274,-232 274,-142 35,-142"/>
</g>
<!-- sqlite_sequence -->
<g id="node3" class="node">
<title>sqlite_sequence</title>
<polygon fill="none" stroke="black" points="109,-281 109,-303 200,-303 200,-281 109,-281"/>
<text text-anchor="start" x="111.75" y="-287.7" font-family="Times,serif" text-decoration="underline" font-size="14.00">sqlite_sequence</text>
<polygon fill="none" stroke="black" points="109,-259 109,-281 160,-281 160,-259 109,-259"/>
<text text-anchor="start" x="119.5" y="-264.7" font-family="Times,serif" font-size="14.00">name</text>
<polygon fill="none" stroke="black" points="160,-259 160,-281 192,-281 192,-259 160,-259"/>
<text text-anchor="start" x="167" y="-264.7" font-family="Times,serif" font-size="14.00">seq</text>
<polygon fill="none" stroke="black" points="108,-258 108,-304 201,-304 201,-258 108,-258"/>
</g>
<!-- builder1 -->
<g id="node4" class="node">
<title>builder1</title>
<polygon fill="none" stroke="black" points="378.5,-422 378.5,-444 571.5,-444 571.5,-422 378.5,-422"/>
<text text-anchor="start" x="452.5" y="-428.7" font-family="Times,serif" text-decoration="underline" font-size="14.00">builder1</text>
<polygon fill="none" stroke="black" points="378.5,-400 378.5,-422 449.5,-422 449.5,-400 378.5,-400"/>
<text text-anchor="start" x="381.38" y="-405.7" font-family="Times,serif" font-size="14.00">Builder1 ID</text>
<polygon fill="none" stroke="black" points="449.5,-400 449.5,-422 509.5,-422 509.5,-400 449.5,-400"/>
<text text-anchor="start" x="465.62" y="-405.7" font-family="Times,serif" font-size="14.00">Type</text>
<polygon fill="none" stroke="black" points="509.5,-400 509.5,-422 571.5,-422 571.5,-400 509.5,-400"/>
<text text-anchor="start" x="512.38" y="-405.7" font-family="Times,serif" font-size="14.00">Data Type</text>
<polygon fill="none" stroke="black" points="378.5,-378 378.5,-400 449.5,-400 449.5,-378 378.5,-378"/>
<text text-anchor="start" x="382.5" y="-383.7" font-family="Times,serif" font-size="14.00">Description</text>
<polygon fill="none" stroke="black" points="449.5,-378 449.5,-400 509.5,-400 509.5,-378 449.5,-378"/>
<text text-anchor="start" x="452.5" y="-383.7" font-family="Times,serif" font-size="14.00">Summary</text>
<polygon fill="none" stroke="black" points="509.5,-378 509.5,-400 571.5,-400 571.5,-378 509.5,-378"/>
<text text-anchor="start" x="522.12" y="-383.7" font-family="Times,serif" font-size="14.00">Clause</text>
<polygon fill="none" stroke="black" points="378.5,-356 378.5,-378 449.5,-378 449.5,-356 378.5,-356"/>
<text text-anchor="start" x="395.62" y="-361.7" font-family="Times,serif" font-size="14.00">Search</text>
<polygon fill="none" stroke="black" points="377.5,-355 377.5,-445 572.5,-445 572.5,-355 377.5,-355"/>
</g>
<!-- builder2 -->
<g id="node5" class="node">
<title>builder2</title>
<polygon fill="none" stroke="black" points="64,-469 64,-491 245,-491 245,-469 64,-469"/>
<text text-anchor="start" x="132" y="-475.7" font-family="Times,serif" text-decoration="underline" font-size="14.00">builder2</text>
<polygon fill="none" stroke="black" points="64,-447 64,-469 135,-469 135,-447 64,-447"/>
<text text-anchor="start" x="66.88" y="-452.7" font-family="Times,serif" font-size="14.00">Builder2 ID</text>
<polygon fill="none" stroke="black" points="135,-447 135,-469 206,-469 206,-447 135,-447"/>
<text text-anchor="start" x="137.88" y="-452.7" font-family="Times,serif" font-size="14.00">Builder1 ID</text>
<polygon fill="none" stroke="black" points="206,-447 206,-469 245,-469 245,-447 206,-447"/>
<text text-anchor="start" x="210.5" y="-452.7" font-family="Times,serif" font-size="14.00">Stage</text>
<polygon fill="none" stroke="black" points="64,-425 64,-447 135,-447 135,-425 64,-425"/>
<text text-anchor="start" x="75.12" y="-430.7" font-family="Times,serif" font-size="14.00">Question</text>
<polygon fill="none" stroke="black" points="135,-425 135,-447 206,-447 206,-425 135,-425"/>
<text text-anchor="start" x="152.12" y="-430.7" font-family="Times,serif" font-size="14.00">Action</text>
<polygon fill="none" stroke="black" points="206,-425 206,-447 245,-447 245,-425 206,-425"/>
<text text-anchor="start" x="208.62" y="-430.7" font-family="Times,serif" font-size="14.00">Suffix</text>
<polygon fill="none" stroke="black" points="63,-424 63,-492 246,-492 246,-424 63,-424"/>
</g>
<!-- builder2&#45;&gt;builder1 -->
<g id="edge1" class="edge">
<title>builder2:Builder1 ID&#45;&gt;builder1:Builder1 ID</title>
<path fill="none" stroke="black" d="M200.29,-447.1C237.46,-433.97 304.71,-413.4 366.36,-411.19"/>
<polygon fill="black" stroke="black" points="366.07,-414.68 376,-411 365.94,-407.68 366.07,-414.68"/>
</g>
<!-- builder3 -->
<g id="node6" class="node">
<title>builder3</title>
<polygon fill="none" stroke="black" points="71.5,-375 71.5,-397 237.5,-397 237.5,-375 71.5,-375"/>
<text text-anchor="start" x="132" y="-381.7" font-family="Times,serif" text-decoration="underline" font-size="14.00">builder3</text>
<polygon fill="none" stroke="black" points="71.5,-353 71.5,-375 142.5,-375 142.5,-353 71.5,-353"/>
<text text-anchor="start" x="74.38" y="-358.7" font-family="Times,serif" font-size="14.00">Builder3 ID</text>
<polygon fill="none" stroke="black" points="142.5,-353 142.5,-375 213.5,-375 213.5,-353 142.5,-353"/>
<text text-anchor="start" x="145.38" y="-358.7" font-family="Times,serif" font-size="14.00">Builder1 ID</text>
<polygon fill="none" stroke="black" points="213.5,-353 213.5,-375 237.5,-375 237.5,-353 213.5,-353"/>
<text text-anchor="start" x="216.12" y="-358.7" font-family="Times,serif" font-size="14.00">Var</text>
<polygon fill="none" stroke="black" points="71.5,-331 71.5,-353 142.5,-353 142.5,-331 71.5,-331"/>
<text text-anchor="start" x="88.62" y="-336.7" font-family="Times,serif" font-size="14.00">Action</text>
<polygon fill="none" stroke="black" points="70.5,-330 70.5,-398 238.5,-398 238.5,-330 70.5,-330"/>
</g>
<!-- builder3&#45;&gt;builder1 -->
<g id="edge2" class="edge">
<title>builder3:Builder1 ID&#45;&gt;builder1:Builder1 ID</title>
<path fill="none" stroke="black" d="M207.13,-374.9C242.67,-387.97 306.87,-408.43 366.02,-410.78"/>
<polygon fill="black" stroke="black" points="365.93,-414.3 376,-411 366.07,-407.3 365.93,-414.3"/>
</g>
<!-- Users -->
<g id="node7" class="node">
<title>Users</title>
<polygon fill="none" stroke="black" points="24.5,-563 24.5,-585 284.5,-585 284.5,-563 24.5,-563"/>
<text text-anchor="start" x="139.12" y="-569.7" font-family="Times,serif" text-decoration="underline" font-size="14.00">Users</text>
<polygon fill="none" stroke="black" points="24.5,-541 24.5,-563 120.5,-563 120.5,-541 24.5,-541"/>
<text text-anchor="start" x="41.38" y="-546.7" font-family="Times,serif" font-size="14.00">User Name</text>
<polygon fill="none" stroke="black" points="120.5,-541 120.5,-563 227.5,-563 227.5,-541 120.5,-541"/>
<text text-anchor="start" x="123.38" y="-546.7" font-family="Times,serif" font-size="14.00">User Displayname</text>
<polygon fill="none" stroke="black" points="227.5,-541 227.5,-563 284.5,-563 284.5,-541 227.5,-541"/>
<text text-anchor="start" x="230.12" y="-546.7" font-family="Times,serif" font-size="14.00">Password</text>
<polygon fill="none" stroke="black" points="24.5,-519 24.5,-541 120.5,-541 120.5,-519 24.5,-519"/>
<text text-anchor="start" x="27.12" y="-524.7" font-family="Times,serif" font-size="14.00">Permission level</text>
<polygon fill="none" stroke="black" points="23.5,-518 23.5,-586 285.5,-586 285.5,-518 23.5,-518"/>
</g>
<!-- Face -->
<g id="node8" class="node">
<title>Face</title>
<polygon fill="none" stroke="black" points="67,-657 67,-679 242,-679 242,-657 67,-657"/>
<text text-anchor="start" x="141.75" y="-663.7" font-family="Times,serif" text-decoration="underline" font-size="14.00">Face</text>
<polygon fill="none" stroke="black" points="67,-635 67,-657 109,-657 109,-635 67,-635"/>
<text text-anchor="start" x="69.62" y="-640.7" font-family="Times,serif" font-size="14.00">faceID</text>
<polygon fill="none" stroke="black" points="109,-635 109,-657 158,-657 158,-635 109,-635"/>
<text text-anchor="start" x="111.75" y="-640.7" font-family="Times,serif" font-size="14.00">batchID</text>
<polygon fill="none" stroke="black" points="158,-635 158,-657 242,-657 242,-635 158,-635"/>
<text text-anchor="start" x="160.62" y="-640.7" font-family="Times,serif" font-size="14.00">imageNumber</text>
<polygon fill="none" stroke="black" points="67,-613 67,-635 109,-635 109,-613 67,-613"/>
<text text-anchor="start" x="77.5" y="-618.7" font-family="Times,serif" font-size="14.00">part</text>
<polygon fill="none" stroke="black" points="66,-612 66,-680 243,-680 243,-612 66,-612"/>
</g>
<!-- McF_inv -->
<g id="node9" class="node">
<title>McF_inv</title>
<polygon fill="none" stroke="black" points="34.5,-773 34.5,-795 274.5,-795 274.5,-773 34.5,-773"/>
<text text-anchor="start" x="129.38" y="-779.7" font-family="Times,serif" text-decoration="underline" font-size="14.00">McF_inv</text>
<polygon fill="none" stroke="black" points="34.5,-751 34.5,-773 93.5,-773 93.5,-751 34.5,-751"/>
<text text-anchor="start" x="41.88" y="-756.7" font-family="Times,serif" font-size="14.00">McF ID</text>
<polygon fill="none" stroke="black" points="93.5,-751 93.5,-773 198.5,-773 198.5,-751 93.5,-751"/>
<text text-anchor="start" x="133.25" y="-756.7" font-family="Times,serif" font-size="14.00">folio</text>
<polygon fill="none" stroke="black" points="198.5,-751 198.5,-773 274.5,-773 274.5,-751 198.5,-751"/>
<text text-anchor="start" x="212.12" y="-756.7" font-family="Times,serif" font-size="14.00">Graphics</text>
<polygon fill="none" stroke="black" points="34.5,-729 34.5,-751 93.5,-751 93.5,-729 34.5,-729"/>
<text text-anchor="start" x="42.25" y="-734.7" font-family="Times,serif" font-size="14.00">systems</text>
<polygon fill="none" stroke="black" points="93.5,-729 93.5,-751 198.5,-751 198.5,-729 93.5,-729"/>
<text text-anchor="start" x="96.5" y="-734.7" font-family="Times,serif" font-size="14.00">original ascription</text>
<polygon fill="none" stroke="black" points="198.5,-729 198.5,-751 274.5,-751 274.5,-729 198.5,-729"/>
<text text-anchor="start" x="201.25" y="-734.7" font-family="Times,serif" font-size="14.00">standard title</text>
<polygon fill="none" stroke="black" points="34.5,-707 34.5,-729 93.5,-729 93.5,-707 34.5,-707"/>
<text text-anchor="start" x="37.38" y="-712.7" font-family="Times,serif" font-size="14.00">composer</text>
<polygon fill="none" stroke="black" points="93.5,-707 93.5,-729 198.5,-729 198.5,-707 93.5,-707"/>
<text text-anchor="start" x="119.38" y="-712.7" font-family="Times,serif" font-size="14.00">cons/cogs</text>
<polygon fill="none" stroke="black" points="33.5,-706 33.5,-796 275.5,-796 275.5,-706 33.5,-706"/>
</g>
<!-- Notation_examples -->
<g id="node10" class="node">
<title>Notation_examples</title>
<polygon fill="none" stroke="black" points="11,-889 11,-911 298,-911 298,-889 11,-889"/>
<text text-anchor="start" x="101.62" y="-895.7" font-family="Times,serif" text-decoration="underline" font-size="14.00">Notation_examples</text>
<polygon fill="none" stroke="black" points="11,-867 11,-889 121,-889 121,-867 11,-867"/>
<text text-anchor="start" x="42.38" y="-872.7" font-family="Times,serif" font-size="14.00">Notation</text>
<polygon fill="none" stroke="black" points="121,-867 121,-889 241,-889 241,-867 121,-867"/>
<text text-anchor="start" x="124" y="-872.7" font-family="Times,serif" font-size="14.00">Notation_description</text>
<polygon fill="none" stroke="black" points="241,-867 241,-889 298,-889 298,-867 241,-867"/>
<text text-anchor="start" x="250.75" y="-872.7" font-family="Times,serif" font-size="14.00">Source</text>
<polygon fill="none" stroke="black" points="11,-845 11,-867 121,-867 121,-845 11,-845"/>
<text text-anchor="start" x="13.88" y="-850.7" font-family="Times,serif" font-size="14.00">Source_description</text>
<polygon fill="none" stroke="black" points="121,-845 121,-867 241,-867 241,-845 121,-845"/>
<text text-anchor="start" x="161.12" y="-850.7" font-family="Times,serif" font-size="14.00">CD_ID</text>
<polygon fill="none" stroke="black" points="241,-845 241,-867 298,-867 298,-845 241,-845"/>
<text text-anchor="start" x="244" y="-850.7" font-family="Times,serif" font-size="14.00">Filename</text>
<polygon fill="none" stroke="black" points="11,-823 11,-845 121,-845 121,-823 11,-823"/>
<text text-anchor="start" x="15.75" y="-828.7" font-family="Times,serif" font-size="14.00">Location_on_page</text>
<polygon fill="none" stroke="black" points="121,-823 121,-845 241,-845 241,-823 121,-823"/>
<text text-anchor="start" x="151" y="-828.7" font-family="Times,serif" font-size="14.00">Comments</text>
<polygon fill="none" stroke="black" points="10,-822 10,-912 299,-912 299,-822 10,-822"/>
</g>
<!-- Person_Cite -->
<g id="node11" class="node">
<title>Person_Cite</title>
<polygon fill="none" stroke="black" points="9.5,-961 9.5,-983 299.5,-983 299.5,-961 9.5,-961"/>
<text text-anchor="start" x="121.5" y="-967.7" font-family="Times,serif" text-decoration="underline" font-size="14.00">Person_Cite</text>
<polygon fill="none" stroke="black" points="9.5,-939 9.5,-961 69.5,-961 69.5,-939 9.5,-939"/>
<text text-anchor="start" x="12.12" y="-944.7" font-family="Times,serif" font-size="14.00">Person ID</text>
<polygon fill="none" stroke="black" points="69.5,-939 69.5,-961 175.5,-961 175.5,-939 69.5,-939"/>
<text text-anchor="start" x="72.25" y="-944.7" font-family="Times,serif" font-size="14.00">PersonCite Initials</text>
<polygon fill="none" stroke="black" points="175.5,-939 175.5,-961 299.5,-961 299.5,-939 175.5,-939"/>
<text text-anchor="start" x="178.25" y="-944.7" font-family="Times,serif" font-size="14.00">PersonCite Institution</text>
<polygon fill="none" stroke="black" points="8.5,-938 8.5,-984 300.5,-984 300.5,-938 8.5,-938"/>
</g>
<!-- Unit -->
<g id="node12" class="node">
<title>Unit</title>
<polygon fill="none" stroke="black" points="47,-1099 47,-1121 262,-1121 262,-1099 47,-1099"/>
<text text-anchor="start" x="142.5" y="-1105.7" font-family="Times,serif" text-decoration="underline" font-size="14.00">Unit</text>
<polygon fill="none" stroke="black" points="47,-1077 47,-1099 101,-1099 101,-1077 47,-1077"/>
<text text-anchor="start" x="56.38" y="-1082.7" font-family="Times,serif" font-size="14.00">unitID</text>
<polygon fill="none" stroke="black" points="101,-1077 101,-1099 173,-1099 173,-1077 101,-1077"/>
<text text-anchor="start" x="118.62" y="-1082.7" font-family="Times,serif" font-size="14.00">faceID</text>
<polygon fill="none" stroke="black" points="173,-1077 173,-1099 262,-1099 262,-1077 173,-1077"/>
<text text-anchor="start" x="175.88" y="-1082.7" font-family="Times,serif" font-size="14.00">systemNumber</text>
<polygon fill="none" stroke="black" points="47,-1055 47,-1077 101,-1077 101,-1055 47,-1055"/>
<text text-anchor="start" x="50" y="-1060.7" font-family="Times,serif" font-size="14.00">prevUnit</text>
<polygon fill="none" stroke="black" points="101,-1055 101,-1077 173,-1077 173,-1055 101,-1055"/>
<text text-anchor="start" x="119.75" y="-1060.7" font-family="Times,serif" font-size="14.00">tuning</text>
<polygon fill="none" stroke="black" points="173,-1055 173,-1077 262,-1077 262,-1055 173,-1055"/>
<text text-anchor="start" x="206.62" y="-1060.7" font-family="Times,serif" font-size="14.00">font</text>
<polygon fill="none" stroke="black" points="47,-1033 47,-1055 101,-1055 101,-1033 47,-1033"/>
<text text-anchor="start" x="54.12" y="-1038.7" font-family="Times,serif" font-size="14.00">tabtype</text>
<polygon fill="none" stroke="black" points="101,-1033 101,-1055 173,-1055 173,-1033 101,-1033"/>
<text text-anchor="start" x="104" y="-1038.7" font-family="Times,serif" font-size="14.00">ocr_tabcode</text>
<polygon fill="none" stroke="black" points="173,-1033 173,-1055 262,-1055 262,-1033 173,-1033"/>
<text text-anchor="start" x="188.62" y="-1038.7" font-family="Times,serif" font-size="14.00">imagePath</text>
<polygon fill="none" stroke="black" points="47,-1011 47,-1033 101,-1033 101,-1011 47,-1011"/>
<text text-anchor="start" x="51.5" y="-1016.7" font-family="Times,serif" font-size="14.00">duration</text>
<polygon fill="none" stroke="black" points="46,-1010 46,-1122 263,-1122 263,-1010 46,-1010"/>
</g>
<!-- RISM -->
<g id="node13" class="node">
<title>RISM</title>
<polygon fill="none" stroke="black" points="9,-1171 9,-1193 300,-1193 300,-1171 9,-1171"/>
<text text-anchor="start" x="137.62" y="-1177.7" font-family="Times,serif" text-decoration="underline" font-size="14.00">RISM</text>
<polygon fill="none" stroke="black" points="9,-1149 9,-1171 66,-1171 66,-1149 9,-1149"/>
<text text-anchor="start" x="11.62" y="-1154.7" font-family="Times,serif" font-size="14.00">RISM ID</text>
<polygon fill="none" stroke="black" points="66,-1149 66,-1171 150,-1171 150,-1149 66,-1149"/>
<text text-anchor="start" x="69" y="-1154.7" font-family="Times,serif" font-size="14.00">RISM Library</text>
<polygon fill="none" stroke="black" points="150,-1149 150,-1171 300,-1171 300,-1149 150,-1149"/>
<text text-anchor="start" x="152.62" y="-1154.7" font-family="Times,serif" font-size="14.00">RISM Library Description</text>
<polygon fill="none" stroke="black" points="8,-1148 8,-1194 301,-1194 301,-1148 8,-1148"/>
</g>
<!-- User_Groups -->
<g id="node14" class="node">
<title>User_Groups</title>
<polygon fill="none" stroke="black" points="49.5,-1337 49.5,-1359 259.5,-1359 259.5,-1337 49.5,-1337"/>
<text text-anchor="start" x="118.5" y="-1343.7" font-family="Times,serif" text-decoration="underline" font-size="14.00">User_Groups</text>
<polygon fill="none" stroke="black" points="49.5,-1315 49.5,-1337 133.5,-1337 133.5,-1315 49.5,-1315"/>
<text text-anchor="start" x="52.5" y="-1320.7" font-family="Times,serif" font-size="14.00">UserGroup ID</text>
<polygon fill="none" stroke="black" points="133.5,-1315 133.5,-1337 201.5,-1337 201.5,-1315 133.5,-1315"/>
<text text-anchor="start" x="136.38" y="-1320.7" font-family="Times,serif" font-size="14.00">User Name</text>
<polygon fill="none" stroke="black" points="201.5,-1315 201.5,-1337 259.5,-1337 259.5,-1315 201.5,-1315"/>
<text text-anchor="start" x="204.25" y="-1320.7" font-family="Times,serif" font-size="14.00">Group ID</text>
<polygon fill="none" stroke="black" points="48.5,-1314 48.5,-1360 260.5,-1360 260.5,-1314 48.5,-1314"/>
</g>
<!-- Groups -->
<g id="node15" class="node">
<title>Groups</title>
<polygon fill="none" stroke="black" points="354,-1301 354,-1323 596,-1323 596,-1301 354,-1301"/>
<text text-anchor="start" x="455.12" y="-1307.7" font-family="Times,serif" text-decoration="underline" font-size="14.00">Groups</text>
<polygon fill="none" stroke="black" points="354,-1279 354,-1301 412,-1301 412,-1279 354,-1279"/>
<text text-anchor="start" x="356.75" y="-1284.7" font-family="Times,serif" font-size="14.00">Group ID</text>
<polygon fill="none" stroke="black" points="412,-1279 412,-1301 489,-1301 489,-1279 412,-1279"/>
<text text-anchor="start" x="414.88" y="-1284.7" font-family="Times,serif" font-size="14.00">Group Name</text>
<polygon fill="none" stroke="black" points="489,-1279 489,-1301 596,-1301 596,-1279 489,-1279"/>
<text text-anchor="start" x="491.88" y="-1284.7" font-family="Times,serif" font-size="14.00">Group Description</text>
<polygon fill="none" stroke="black" points="353,-1278 353,-1324 597,-1324 597,-1278 353,-1278"/>
</g>
<!-- User_Groups&#45;&gt;Groups -->
<g id="edge3" class="edge">
<title>User_Groups:Group ID&#45;&gt;Groups:Group ID</title>
<path fill="none" stroke="black" d="M260.5,-1326C300.82,-1326 307.86,-1295.92 342.46,-1290.75"/>
<polygon fill="black" stroke="black" points="342.27,-1294.2 352,-1290 341.78,-1287.22 342.27,-1294.2"/>
</g>
<!-- Editions2 -->
<g id="node16" class="node">
<title>Editions2</title>
<polygon fill="none" stroke="black" points="34.5,-1265 34.5,-1287 274.5,-1287 274.5,-1265 34.5,-1265"/>
<text text-anchor="start" x="128.62" y="-1271.7" font-family="Times,serif" text-decoration="underline" font-size="14.00">Editions2</text>
<polygon fill="none" stroke="black" points="34.5,-1243 34.5,-1265 148.5,-1265 148.5,-1243 34.5,-1243"/>
<text text-anchor="start" x="62.62" y="-1248.7" font-family="Times,serif" font-size="14.00">Edition ID</text>
<polygon fill="none" stroke="black" points="148.5,-1243 148.5,-1265 216.5,-1265 216.5,-1243 148.5,-1243"/>
<text text-anchor="start" x="151.38" y="-1248.7" font-family="Times,serif" font-size="14.00">User Name</text>
<polygon fill="none" stroke="black" points="216.5,-1243 216.5,-1265 274.5,-1265 274.5,-1243 216.5,-1243"/>
<text text-anchor="start" x="219.25" y="-1248.7" font-family="Times,serif" font-size="14.00">Group ID</text>
<polygon fill="none" stroke="black" points="34.5,-1221 34.5,-1243 148.5,-1243 148.5,-1221 34.5,-1221"/>
<text text-anchor="start" x="37.12" y="-1226.7" font-family="Times,serif" font-size="14.00">Editions Comments</text>
<polygon fill="none" stroke="black" points="33.5,-1220 33.5,-1288 275.5,-1288 275.5,-1220 33.5,-1220"/>
</g>
<!-- Editions2&#45;&gt;Groups -->
<g id="edge4" class="edge">
<title>Editions2:Group ID&#45;&gt;Groups:Group ID</title>
<path fill="none" stroke="black" d="M275.5,-1254C309.47,-1254 314.29,-1282.81 342.11,-1288.88"/>
<polygon fill="black" stroke="black" points="341.69,-1292.46 352,-1290 342.41,-1285.5 341.69,-1292.46"/>
</g>
<!-- Contributor -->
<g id="node17" class="node">
<title>Contributor</title>
<polygon fill="none" stroke="black" points="79,-1409 79,-1431 230,-1431 230,-1409 79,-1409"/>
<text text-anchor="start" x="123" y="-1415.7" font-family="Times,serif" text-decoration="underline" font-size="14.00">Contributor</text>
<polygon fill="none" stroke="black" points="79,-1387 79,-1409 137,-1409 137,-1387 79,-1387"/>
<text text-anchor="start" x="81.75" y="-1392.7" font-family="Times,serif" font-size="14.00">username</text>
<polygon fill="none" stroke="black" points="137,-1387 137,-1409 173,-1409 173,-1387 137,-1387"/>
<text text-anchor="start" x="140" y="-1392.7" font-family="Times,serif" font-size="14.00">name</text>
<polygon fill="none" stroke="black" points="173,-1387 173,-1409 230,-1409 230,-1387 173,-1387"/>
<text text-anchor="start" x="176" y="-1392.7" font-family="Times,serif" font-size="14.00">password</text>
<polygon fill="none" stroke="black" points="78,-1386 78,-1432 231,-1432 231,-1386 78,-1386"/>
</g>
<!-- Batch -->
<g id="node18" class="node">
<title>Batch</title>
<polygon fill="none" stroke="black" points="67,-1481 67,-1503 242,-1503 242,-1481 67,-1481"/>
<text text-anchor="start" x="138.75" y="-1487.7" font-family="Times,serif" text-decoration="underline" font-size="14.00">Batch</text>
<polygon fill="none" stroke="black" points="67,-1459 67,-1481 116,-1481 116,-1459 67,-1459"/>
<text text-anchor="start" x="69.75" y="-1464.7" font-family="Times,serif" font-size="14.00">batchID</text>
<polygon fill="none" stroke="black" points="116,-1459 116,-1481 182,-1481 182,-1459 116,-1459"/>
<text text-anchor="start" x="119" y="-1464.7" font-family="Times,serif" font-size="14.00">description</text>
<polygon fill="none" stroke="black" points="182,-1459 182,-1481 242,-1481 242,-1459 182,-1459"/>
<text text-anchor="start" x="184.62" y="-1464.7" font-family="Times,serif" font-size="14.00">classmark</text>
<polygon fill="none" stroke="black" points="66,-1458 66,-1504 243,-1504 243,-1458 66,-1458"/>
</g>
<!-- inventory -->
<g id="node19" class="node">
<title>inventory</title>
<polygon fill="none" stroke="black" points="22.5,-1619 22.5,-1641 286.5,-1641 286.5,-1619 22.5,-1619"/>
<text text-anchor="start" x="128.62" y="-1625.7" font-family="Times,serif" text-decoration="underline" font-size="14.00">inventory</text>
<polygon fill="none" stroke="black" points="22.5,-1597 22.5,-1619 118.5,-1619 118.5,-1597 22.5,-1597"/>
<text text-anchor="start" x="35.62" y="-1602.7" font-family="Times,serif" font-size="14.00">inventory ID</text>
<polygon fill="none" stroke="black" points="118.5,-1597 118.5,-1619 211.5,-1619 211.5,-1597 118.5,-1597"/>
<text text-anchor="start" x="152.25" y="-1602.7" font-family="Times,serif" font-size="14.00">Title</text>
<polygon fill="none" stroke="black" points="211.5,-1597 211.5,-1619 286.5,-1619 286.5,-1597 211.5,-1597"/>
<text text-anchor="start" x="237.75" y="-1602.7" font-family="Times,serif" font-size="14.00">Key</text>
<polygon fill="none" stroke="black" points="22.5,-1575 22.5,-1597 118.5,-1597 118.5,-1575 22.5,-1575"/>
<text text-anchor="start" x="41.62" y="-1580.7" font-family="Times,serif" font-size="14.00">Pagination</text>
<polygon fill="none" stroke="black" points="118.5,-1575 118.5,-1597 211.5,-1597 211.5,-1575 118.5,-1575"/>
<text text-anchor="start" x="137.25" y="-1580.7" font-family="Times,serif" font-size="14.00">Start Page</text>
<polygon fill="none" stroke="black" points="211.5,-1575 211.5,-1597 286.5,-1597 286.5,-1575 211.5,-1575"/>
<text text-anchor="start" x="214.12" y="-1580.7" font-family="Times,serif" font-size="14.00">Start System</text>
<polygon fill="none" stroke="black" points="22.5,-1553 22.5,-1575 118.5,-1575 118.5,-1553 22.5,-1553"/>
<text text-anchor="start" x="25.12" y="-1558.7" font-family="Times,serif" font-size="14.00">Start Lastsystem</text>
<polygon fill="none" stroke="black" points="118.5,-1553 118.5,-1575 211.5,-1575 211.5,-1553 118.5,-1553"/>
<text text-anchor="start" x="137.62" y="-1558.7" font-family="Times,serif" font-size="14.00">Start Item</text>
<polygon fill="none" stroke="black" points="211.5,-1553 211.5,-1575 286.5,-1575 286.5,-1553 211.5,-1553"/>
<text text-anchor="start" x="223.12" y="-1558.7" font-family="Times,serif" font-size="14.00">End Page</text>
<polygon fill="none" stroke="black" points="22.5,-1531 22.5,-1553 118.5,-1553 118.5,-1531 22.5,-1531"/>
<text text-anchor="start" x="37.5" y="-1536.7" font-family="Times,serif" font-size="14.00">End System</text>
<polygon fill="none" stroke="black" points="118.5,-1531 118.5,-1553 211.5,-1553 211.5,-1531 118.5,-1531"/>
<text text-anchor="start" x="121.5" y="-1536.7" font-family="Times,serif" font-size="14.00">End Lastsystem</text>
<polygon fill="none" stroke="black" points="211.5,-1531 211.5,-1553 286.5,-1553 286.5,-1531 211.5,-1531"/>
<text text-anchor="start" x="223.5" y="-1536.7" font-family="Times,serif" font-size="14.00">End Item</text>
<polygon fill="none" stroke="black" points="21.5,-1530 21.5,-1642 287.5,-1642 287.5,-1530 21.5,-1530"/>
</g>
</g>
</svg>
