<?xml version="1.0" encoding="UTF-8" standalone="no"?>
<!DOCTYPE svg PUBLIC "-//W3C//DTD SVG 1.1//EN"
 "http://www.w3.org/Graphics/SVG/1.1/DTD/svg11.dtd">
<!-- Generated by graphviz version 8.0.5 (0)
 -->
<!-- Title: schema Pages: 1 -->
<svg width="1272pt" height="1072pt"
 viewBox="0.00 0.00 1271.50 1072.00" xmlns="http://www.w3.org/2000/svg" xmlns:xlink="http://www.w3.org/1999/xlink">
<g id="graph0" class="graph" transform="scale(1 1) rotate(0) translate(4 1068)">
<title>schema</title>
<polygon fill="white" stroke="none" points="-4,4 -4,-1068 1267.5,-1068 1267.5,4 -4,4"/>
<!-- active_admin_comments -->
<g id="node1" class="node">
<title>active_admin_comments</title>
<ellipse fill="none" stroke="black" cx="712.1" cy="-992" rx="104.58" ry="18"/>
<text text-anchor="middle" x="712.1" y="-986.95" font-family="Times,serif" font-size="14.00">active_admin_comments</text>
</g>
<!-- resources -->
<g id="node2" class="node">
<title>resources</title>
<ellipse fill="none" stroke="black" cx="898.41" cy="-1046" rx="45.72" ry="18"/>
<text text-anchor="middle" x="898.41" y="-1040.95" font-family="Times,serif" font-size="14.00">resources</text>
</g>
<!-- active_admin_comments&#45;&gt;resources -->
<g id="edge1" class="edge">
<title>active_admin_comments&#45;&gt;resources</title>
<path fill="none" stroke="black" d="M773.27,-1006.95C787.55,-1010.7 802.7,-1014.84 816.68,-1019 828.63,-1022.55 841.46,-1026.69 853.3,-1030.65"/>
<polygon fill="black" stroke="black" points="851.8,-1034.17 862.4,-1034.06 854.04,-1027.54 851.8,-1034.17"/>
</g>
<!-- authors -->
<g id="node3" class="node">
<title>authors</title>
<ellipse fill="none" stroke="black" cx="898.41" cy="-992" rx="38.04" ry="18"/>
<text text-anchor="middle" x="898.41" y="-986.95" font-family="Times,serif" font-size="14.00">authors</text>
</g>
<!-- active_admin_comments&#45;&gt;authors -->
<g id="edge2" class="edge">
<title>active_admin_comments&#45;&gt;authors</title>
<path fill="none" stroke="black" d="M817.1,-992C828.26,-992 839.17,-992 849.19,-992"/>
<polygon fill="black" stroke="black" points="849.07,-995.5 859.07,-992 849.07,-988.5 849.07,-995.5"/>
</g>
<!-- bookmarks -->
<g id="node4" class="node">
<title>bookmarks</title>
<ellipse fill="none" stroke="black" cx="471.04" cy="-938" rx="52.38" ry="18"/>
<text text-anchor="middle" x="471.04" y="-932.95" font-family="Times,serif" font-size="14.00">bookmarks</text>
</g>
<!-- users -->
<g id="node5" class="node">
<title>users</title>
<ellipse fill="none" stroke="black" cx="712.1" cy="-884" rx="29.86" ry="18"/>
<text text-anchor="middle" x="712.1" y="-878.95" font-family="Times,serif" font-size="14.00">users</text>
</g>
<!-- bookmarks&#45;&gt;users -->
<g id="edge3" class="edge">
<title>bookmarks&#45;&gt;users</title>
<path fill="none" stroke="black" d="M515.61,-928.16C560.71,-917.97 630.43,-902.22 673.29,-892.54"/>
<polygon fill="black" stroke="black" points="673.85,-895.78 682.83,-890.16 672.31,-888.95 673.85,-895.78"/>
</g>
<!-- documents -->
<g id="node6" class="node">
<title>documents</title>
<ellipse fill="none" stroke="black" cx="712.1" cy="-938" rx="51.35" ry="18"/>
<text text-anchor="middle" x="712.1" y="-932.95" font-family="Times,serif" font-size="14.00">documents</text>
</g>
<!-- bookmarks&#45;&gt;documents -->
<g id="edge4" class="edge">
<title>bookmarks&#45;&gt;documents</title>
<path fill="none" stroke="black" d="M523.91,-938C560.86,-938 610.68,-938 649.63,-938"/>
<polygon fill="black" stroke="black" points="649.56,-941.5 659.56,-938 649.56,-934.5 649.56,-941.5"/>
</g>
<!-- delayed_jobs -->
<g id="node7" class="node">
<title>delayed_jobs</title>
<ellipse fill="none" stroke="black" cx="84.11" cy="-830" rx="59.54" ry="18"/>
<text text-anchor="middle" x="84.11" y="-824.95" font-family="Times,serif" font-size="14.00">delayed_jobs</text>
</g>
<!-- parents -->
<g id="node8" class="node">
<title>parents</title>
<ellipse fill="none" stroke="black" cx="269.38" cy="-830" rx="37.53" ry="18"/>
<text text-anchor="middle" x="269.38" y="-824.95" font-family="Times,serif" font-size="14.00">parents</text>
</g>
<!-- delayed_jobs&#45;&gt;parents -->
<g id="edge5" class="edge">
<title>delayed_jobs&#45;&gt;parents</title>
<path fill="none" stroke="black" d="M144.11,-830C168.86,-830 197.27,-830 220.67,-830"/>
<polygon fill="black" stroke="black" points="220.37,-833.5 230.37,-830 220.37,-826.5 220.37,-833.5"/>
</g>
<!-- digital_object_links -->
<g id="node9" class="node">
<title>digital_object_links</title>
<ellipse fill="none" stroke="black" cx="84.11" cy="-911" rx="84.11" ry="18"/>
<text text-anchor="middle" x="84.11" y="-905.95" font-family="Times,serif" font-size="14.00">digital_object_links</text>
</g>
<!-- digital_objects -->
<g id="node10" class="node">
<title>digital_objects</title>
<ellipse fill="none" stroke="black" cx="269.38" cy="-938" rx="65.17" ry="18"/>
<text text-anchor="middle" x="269.38" y="-932.95" font-family="Times,serif" font-size="14.00">digital_objects</text>
</g>
<!-- digital_object_links&#45;&gt;digital_objects -->
<g id="edge6" class="edge">
<title>digital_object_links&#45;&gt;digital_objects</title>
<path fill="none" stroke="black" d="M154.4,-921.21C169.49,-923.43 185.44,-925.78 200.47,-928"/>
<polygon fill="black" stroke="black" points="199.83,-931.59 210.24,-929.58 200.85,-924.66 199.83,-931.59"/>
</g>
<!-- object_links -->
<g id="node11" class="node">
<title>object_links</title>
<ellipse fill="none" stroke="black" cx="269.38" cy="-884" rx="55.96" ry="18"/>
<text text-anchor="middle" x="269.38" y="-878.95" font-family="Times,serif" font-size="14.00">object_links</text>
</g>
<!-- digital_object_links&#45;&gt;object_links -->
<g id="edge7" class="edge">
<title>digital_object_links&#45;&gt;object_links</title>
<path fill="none" stroke="black" d="M154.4,-900.79C171.69,-898.24 190.12,-895.53 207,-893.04"/>
<polygon fill="black" stroke="black" points="207.47,-896.37 216.85,-891.44 206.44,-889.44 207.47,-896.37"/>
</g>
<!-- folder_items -->
<g id="node12" class="node">
<title>folder_items</title>
<ellipse fill="none" stroke="black" cx="84.11" cy="-1046" rx="58" ry="18"/>
<text text-anchor="middle" x="84.11" y="-1040.95" font-family="Times,serif" font-size="14.00">folder_items</text>
</g>
<!-- folders -->
<g id="node13" class="node">
<title>folders</title>
<ellipse fill="none" stroke="black" cx="269.38" cy="-1046" rx="36.51" ry="18"/>
<text text-anchor="middle" x="269.38" y="-1040.95" font-family="Times,serif" font-size="14.00">folders</text>
</g>
<!-- folder_items&#45;&gt;folders -->
<g id="edge8" class="edge">
<title>folder_items&#45;&gt;folders</title>
<path fill="none" stroke="black" d="M142.59,-1046C167.97,-1046 197.42,-1046 221.45,-1046"/>
<polygon fill="black" stroke="black" points="221.41,-1049.5 231.41,-1046 221.41,-1042.5 221.41,-1049.5"/>
</g>
<!-- items -->
<g id="node14" class="node">
<title>items</title>
<ellipse fill="none" stroke="black" cx="269.38" cy="-992" rx="31.39" ry="18"/>
<text text-anchor="middle" x="269.38" y="-986.95" font-family="Times,serif" font-size="14.00">items</text>
</g>
<!-- folder_items&#45;&gt;items -->
<g id="edge9" class="edge">
<title>folder_items&#45;&gt;items</title>
<path fill="none" stroke="black" d="M127.15,-1033.61C158.22,-1024.46 200.15,-1012.1 230.25,-1003.24"/>
<polygon fill="black" stroke="black" points="231.15,-1006.32 239.76,-1000.14 229.17,-999.61 231.15,-1006.32"/>
</g>
<!-- holdings -->
<g id="node15" class="node">
<title>holdings</title>
<ellipse fill="none" stroke="black" cx="84.11" cy="-600" rx="42.65" ry="18"/>
<text text-anchor="middle" x="84.11" y="-594.95" font-family="Times,serif" font-size="14.00">holdings</text>
</g>
<!-- sources -->
<g id="node16" class="node">
<title>sources</title>
<ellipse fill="none" stroke="black" cx="269.38" cy="-407" rx="38.56" ry="18"/>
<text text-anchor="middle" x="269.38" y="-401.95" font-family="Times,serif" font-size="14.00">sources</text>
</g>
<!-- holdings&#45;&gt;sources -->
<g id="edge10" class="edge">
<title>holdings&#45;&gt;sources</title>
<path fill="none" stroke="black" d="M101.05,-583.21C133.49,-549.05 207.3,-471.32 245.11,-431.51"/>
<polygon fill="black" stroke="black" points="247.26,-434.28 251.61,-424.61 242.18,-429.45 247.26,-434.28"/>
</g>
<!-- collections -->
<g id="node17" class="node">
<title>collections</title>
<ellipse fill="none" stroke="black" cx="269.38" cy="-684" rx="50.84" ry="18"/>
<text text-anchor="middle" x="269.38" y="-678.95" font-family="Times,serif" font-size="14.00">collections</text>
</g>
<!-- holdings&#45;&gt;collections -->
<g id="edge11" class="edge">
<title>holdings&#45;&gt;collections</title>
<path fill="none" stroke="black" d="M113.74,-613.12C144.26,-627.11 192.83,-649.37 227.4,-665.21"/>
<polygon fill="black" stroke="black" points="225.64,-668.72 236.19,-669.7 228.56,-662.35 225.64,-668.72"/>
</g>
<!-- institutions -->
<g id="node18" class="node">
<title>institutions</title>
<ellipse fill="none" stroke="black" cx="712.1" cy="-608" rx="51.86" ry="18"/>
<text text-anchor="middle" x="712.1" y="-602.95" font-family="Times,serif" font-size="14.00">institutions</text>
</g>
<!-- holdings&#45;&gt;institutions -->
<g id="edge12" class="edge">
<title>holdings&#45;&gt;institutions</title>
<path fill="none" stroke="black" d="M127.15,-600.54C235.03,-601.92 522.06,-605.58 649.11,-607.21"/>
<polygon fill="black" stroke="black" points="648.76,-610.72 658.8,-607.34 648.84,-603.72 648.76,-610.72"/>
</g>
<!-- people -->
<g id="node19" class="node">
<title>people</title>
<ellipse fill="none" stroke="black" cx="898.41" cy="-476" rx="35.49" ry="18"/>
<text text-anchor="middle" x="898.41" y="-470.95" font-family="Times,serif" font-size="14.00">people</text>
</g>
<!-- holdings&#45;&gt;people -->
<g id="edge13" class="edge">
<title>holdings&#45;&gt;people</title>
<path fill="none" stroke="black" d="M125.23,-594.54C235.71,-579.38 553.57,-535.03 816.68,-491 828.85,-488.96 842.01,-486.59 854.1,-484.34"/>
<polygon fill="black" stroke="black" points="854.67,-487.61 863.85,-482.32 853.38,-480.73 854.67,-487.61"/>
</g>
<!-- places -->
<g id="node20" class="node">
<title>places</title>
<ellipse fill="none" stroke="black" cx="1195.77" cy="-607" rx="33.95" ry="18"/>
<text text-anchor="middle" x="1195.77" y="-601.95" font-family="Times,serif" font-size="14.00">places</text>
</g>
<!-- holdings&#45;&gt;places -->
<g id="edge14" class="edge">
<title>holdings&#45;&gt;places</title>
<path fill="none" stroke="black" d="M99.12,-617.12C119.75,-641.29 160.61,-685.33 204.21,-711 309.8,-773.15 347.52,-784 470.04,-784 470.04,-784 470.04,-784 899.41,-784 1016.95,-784 1128.17,-679.58 1173.44,-631.15"/>
<polygon fill="black" stroke="black" points="1175.44,-634.06 1179.63,-624.33 1170.28,-629.33 1175.44,-634.06"/>
</g>
<!-- publications -->
<g id="node21" class="node">
<title>publications</title>
<ellipse fill="none" stroke="black" cx="1036.08" cy="-453" rx="55.96" ry="18"/>
<text text-anchor="middle" x="1036.08" y="-447.95" font-family="Times,serif" font-size="14.00">publications</text>
</g>
<!-- holdings&#45;&gt;publications -->
<g id="edge15" class="edge">
<title>holdings&#45;&gt;publications</title>
<path fill="none" stroke="black" d="M87.41,-581.72C97.21,-506.97 138.03,-226 204.21,-172 459.12,35.97 715.08,43.15 944.13,-193 1007.71,-258.56 1027.05,-371.01 1032.77,-423.9"/>
<polygon fill="black" stroke="black" points="1029.35,-423.93 1033.82,-433.53 1036.32,-423.24 1029.35,-423.93"/>
</g>
<!-- sources&#45;&gt;sources -->
<g id="edge36" class="edge">
<title>sources&#45;&gt;sources</title>
<path fill="none" stroke="black" d="M253.1,-423.66C249.48,-433.62 254.91,-443 269.38,-443 278.21,-443 283.67,-439.52 285.77,-434.54"/>
<polygon fill="black" stroke="black" points="289.26,-434.63 285.67,-424.66 282.26,-434.7 289.26,-434.63"/>
</g>
<!-- sources&#45;&gt;sources -->
<g id="edge42" class="edge">
<title>sources&#45;&gt;sources</title>
<path fill="none" stroke="black" d="M245.03,-421.38C225.44,-439.46 233.56,-461 269.38,-461 299.89,-461 310.31,-445.38 300.63,-429.58"/>
<polygon fill="black" stroke="black" points="302.85,-427.78 293.73,-422.38 297.49,-432.29 302.85,-427.78"/>
</g>
<!-- sources&#45;&gt;institutions -->
<g id="edge37" class="edge">
<title>sources&#45;&gt;institutions</title>
<path fill="none" stroke="black" d="M284.27,-423.83C302.19,-444.53 335.29,-479.45 370.55,-500 462.56,-553.62 584.33,-583.9 654.56,-598.02"/>
<polygon fill="black" stroke="black" points="653.47,-601.57 663.95,-600.07 654.82,-594.7 653.47,-601.57"/>
</g>
<!-- sources&#45;&gt;people -->
<g id="edge39" class="edge">
<title>sources&#45;&gt;people</title>
<path fill="none" stroke="black" d="M297.81,-419.56C317.59,-428.02 345.17,-438.57 370.55,-444 545.4,-481.38 759.76,-480.37 851.84,-477.77"/>
<polygon fill="black" stroke="black" points="851.83,-481.25 861.72,-477.44 851.61,-474.25 851.83,-481.25"/>
</g>
<!-- sources&#45;&gt;places -->
<g id="edge40" class="edge">
<title>sources&#45;&gt;places</title>
<path fill="none" stroke="black" d="M278.36,-424.7C292.74,-454.85 325.78,-516.46 370.55,-553 459.13,-625.27 495.48,-630.33 607.52,-653 810,-693.97 1058.58,-641.64 1154.44,-617.75"/>
<polygon fill="black" stroke="black" points="1155.26,-620.89 1164.09,-615.05 1153.54,-614.11 1155.26,-620.89"/>
</g>
<!-- sources&#45;&gt;publications -->
<g id="edge41" class="edge">
<title>sources&#45;&gt;publications</title>
<path fill="none" stroke="black" d="M308.05,-409.27C430.02,-416.6 815.29,-439.78 969.92,-449.08"/>
<polygon fill="black" stroke="black" points="969.46,-452.62 979.65,-449.73 969.88,-445.63 969.46,-452.62"/>
</g>
<!-- standard_terms -->
<g id="node22" class="node">
<title>standard_terms</title>
<ellipse fill="none" stroke="black" cx="1195.77" cy="-190" rx="67.73" ry="18"/>
<text text-anchor="middle" x="1195.77" y="-184.95" font-family="Times,serif" font-size="14.00">standard_terms</text>
</g>
<!-- sources&#45;&gt;standard_terms -->
<g id="edge43" class="edge">
<title>sources&#45;&gt;standard_terms</title>
<path fill="none" stroke="black" d="M276.3,-388.86C292.6,-339.76 339.01,-205.65 370.55,-172 486.51,-48.28 541.54,0 711.1,0 711.1,0 711.1,0 899.41,0 1019.25,0 1129.19,-112.01 1173.78,-164.03"/>
<polygon fill="black" stroke="black" points="1171.48,-165.74 1180.61,-171.13 1176.84,-161.22 1171.48,-165.74"/>
</g>
<!-- liturgical_feasts -->
<g id="node26" class="node">
<title>liturgical_feasts</title>
<ellipse fill="none" stroke="black" cx="712.1" cy="-254" rx="69.78" ry="18"/>
<text text-anchor="middle" x="712.1" y="-248.95" font-family="Times,serif" font-size="14.00">liturgical_feasts</text>
</g>
<!-- sources&#45;&gt;liturgical_feasts -->
<g id="edge38" class="edge">
<title>sources&#45;&gt;liturgical_feasts</title>
<path fill="none" stroke="black" d="M283.6,-389.98C301.07,-368.78 333.95,-333.14 370.55,-315 453.36,-273.97 559.63,-260.22 631.26,-255.79"/>
<polygon fill="black" stroke="black" points="631.23,-259.24 641.01,-255.18 630.83,-252.25 631.23,-259.24"/>
</g>
<!-- standard_titles -->
<g id="node29" class="node">
<title>standard_titles</title>
<ellipse fill="none" stroke="black" cx="712.1" cy="-308" rx="64.66" ry="18"/>
<text text-anchor="middle" x="712.1" y="-302.95" font-family="Times,serif" font-size="14.00">standard_titles</text>
</g>
<!-- sources&#45;&gt;standard_titles -->
<g id="edge44" class="edge">
<title>sources&#45;&gt;standard_titles</title>
<path fill="none" stroke="black" d="M293.77,-392.63C313.51,-381.16 342.91,-365.64 370.55,-357 459.71,-329.13 567.02,-317.03 637.04,-311.83"/>
<polygon fill="black" stroke="black" points="637.22,-315.25 646.95,-311.05 636.72,-308.27 637.22,-315.25"/>
</g>
<!-- work_nodes -->
<g id="node30" class="node">
<title>work_nodes</title>
<ellipse fill="none" stroke="black" cx="471.04" cy="-384" rx="55.96" ry="18"/>
<text text-anchor="middle" x="471.04" y="-378.95" font-family="Times,serif" font-size="14.00">work_nodes</text>
</g>
<!-- sources&#45;&gt;work_nodes -->
<g id="edge45" class="edge">
<title>sources&#45;&gt;work_nodes</title>
<path fill="none" stroke="black" d="M307,-402.78C334.92,-399.57 374.04,-395.06 406.96,-391.27"/>
<polygon fill="black" stroke="black" points="407.33,-394.63 416.86,-390.01 406.52,-387.68 407.33,-394.63"/>
</g>
<!-- works -->
<g id="node31" class="node">
<title>works</title>
<ellipse fill="none" stroke="black" cx="471.04" cy="-199" rx="33.44" ry="18"/>
<text text-anchor="middle" x="471.04" y="-193.95" font-family="Times,serif" font-size="14.00">works</text>
</g>
<!-- sources&#45;&gt;works -->
<g id="edge46" class="edge">
<title>sources&#45;&gt;works</title>
<path fill="none" stroke="black" d="M279.18,-389.4C294.57,-359.91 328.75,-299.84 370.55,-260 389.71,-241.74 415.22,-226.23 435.61,-215.42"/>
<polygon fill="black" stroke="black" points="436.88,-218.2 444.16,-210.5 433.67,-211.97 436.88,-218.2"/>
</g>
<!-- institutions&#45;&gt;institutions -->
<g id="edge16" class="edge">
<title>institutions&#45;&gt;institutions</title>
<path fill="none" stroke="black" d="M680.93,-622.79C670.79,-633.42 681.18,-644 712.1,-644 732.4,-644 743.85,-639.44 746.46,-633.31"/>
<polygon fill="black" stroke="black" points="749.52,-632.35 743.27,-623.79 742.82,-634.38 749.52,-632.35"/>
</g>
<!-- institutions&#45;&gt;people -->
<g id="edge17" class="edge">
<title>institutions&#45;&gt;people</title>
<path fill="none" stroke="black" d="M748.75,-595.06C770.01,-589.43 796.66,-581.39 816.68,-567 838.92,-551.02 835.53,-538.35 852.68,-517 857.8,-510.63 863.47,-504 869,-497.92"/>
<polygon fill="black" stroke="black" points="871.11,-500.72 875.4,-491.03 866.01,-495.93 871.11,-500.72"/>
</g>
<!-- institutions&#45;&gt;places -->
<g id="edge18" class="edge">
<title>institutions&#45;&gt;places</title>
<path fill="none" stroke="black" d="M764.29,-608.92C837.1,-610.07 974.79,-611.71 1092.04,-610 1111.25,-609.72 1132.47,-609.14 1150.61,-608.57"/>
<polygon fill="black" stroke="black" points="1150.58,-612.04 1160.47,-608.22 1150.36,-605.05 1150.58,-612.04"/>
</g>
<!-- institutions&#45;&gt;publications -->
<g id="edge19" class="edge">
<title>institutions&#45;&gt;publications</title>
<path fill="none" stroke="black" d="M744.83,-593.76C790.75,-577.81 877.55,-550.54 944.13,-512 962.99,-501.08 982.52,-486.92 998.62,-475.07"/>
<polygon fill="black" stroke="black" points="1000.22,-477.5 1006.19,-468.76 996.07,-471.87 1000.22,-477.5"/>
</g>
<!-- institutions&#45;&gt;standard_terms -->
<g id="edge20" class="edge">
<title>institutions&#45;&gt;standard_terms</title>
<path fill="none" stroke="black" d="M764.13,-609.04C846.21,-607.74 1006.95,-592.38 1092.04,-498 1166,-415.97 1186.93,-279.08 1192.67,-219.36"/>
<polygon fill="black" stroke="black" points="1196.24,-219.75 1193.63,-209.49 1189.27,-219.14 1196.24,-219.75"/>
</g>
<!-- people&#45;&gt;institutions -->
<g id="edge25" class="edge">
<title>people&#45;&gt;institutions</title>
<path fill="none" stroke="black" d="M887.47,-493.41C878.18,-505.37 864.06,-520.84 852.68,-535 835.53,-556.35 838.92,-569.02 816.68,-585 804.32,-593.88 789.44,-600.35 774.85,-604.75"/>
<polygon fill="black" stroke="black" points="774.07,-601.61 765.33,-607.6 775.89,-608.37 774.07,-601.61"/>
</g>
<!-- people&#45;&gt;people -->
<g id="edge26" class="edge">
<title>people&#45;&gt;people</title>
<path fill="none" stroke="black" d="M875.92,-490.04C867.52,-500.91 875.01,-512 898.41,-512 914.12,-512 922.66,-506.99 924.03,-500.41"/>
<polygon fill="black" stroke="black" points="927.13,-499.6 920.89,-491.04 920.43,-501.63 927.13,-499.6"/>
</g>
<!-- people&#45;&gt;places -->
<g id="edge27" class="edge">
<title>people&#45;&gt;places</title>
<path fill="none" stroke="black" d="M925.88,-487.74C979.15,-511.37 1099.33,-564.67 1159.32,-591.27"/>
<polygon fill="black" stroke="black" points="1157.54,-594.76 1168.1,-595.61 1160.38,-588.36 1157.54,-594.76"/>
</g>
<!-- people&#45;&gt;publications -->
<g id="edge28" class="edge">
<title>people&#45;&gt;publications</title>
<path fill="none" stroke="black" d="M927.85,-465.56C940.1,-462.68 954.98,-459.78 969.71,-457.34"/>
<polygon fill="black" stroke="black" points="970.04,-460.67 979.37,-455.64 968.94,-453.76 970.04,-460.67"/>
</g>
<!-- publications&#45;&gt;institutions -->
<g id="edge29" class="edge">
<title>publications&#45;&gt;institutions</title>
<path fill="none" stroke="black" d="M1021.91,-470.64C1004.81,-487.87 973.65,-512.91 944.13,-530 888.95,-561.94 819.9,-586.13 771.72,-599.04"/>
<polygon fill="black" stroke="black" points="770.97,-595.87 762.16,-601.77 772.72,-602.65 770.97,-595.87"/>
</g>
<!-- publications&#45;&gt;people -->
<g id="edge30" class="edge">
<title>publications&#45;&gt;people</title>
<path fill="none" stroke="black" d="M995.95,-465.81C980,-469.19 961.44,-472.41 944.89,-474.7"/>
<polygon fill="black" stroke="black" points="944.81,-471.31 935.35,-476.07 945.71,-478.25 944.81,-471.31"/>
</g>
<!-- publications&#45;&gt;places -->
<g id="edge31" class="edge">
<title>publications&#45;&gt;places</title>
<path fill="none" stroke="black" d="M1054.87,-470.37C1083.38,-498.21 1139.34,-552.87 1171.17,-583.95"/>
<polygon fill="black" stroke="black" points="1168.11,-585.83 1177.71,-590.31 1173,-580.82 1168.11,-585.83"/>
</g>
<!-- publications&#45;&gt;publications -->
<g id="edge32" class="edge">
<title>publications&#45;&gt;publications</title>
<path fill="none" stroke="black" d="M1011.88,-469.66C1006.5,-479.62 1014.57,-489 1036.08,-489 1049.19,-489 1057.31,-485.52 1060.43,-480.54"/>
<polygon fill="black" stroke="black" points="1063.92,-480.62 1060.29,-470.66 1056.92,-480.71 1063.92,-480.62"/>
</g>
<!-- publications&#45;&gt;standard_terms -->
<g id="edge33" class="edge">
<title>publications&#45;&gt;standard_terms</title>
<path fill="none" stroke="black" d="M1047.92,-434.92C1075.04,-389.69 1145.97,-271.4 1178.29,-217.49"/>
<polygon fill="black" stroke="black" points="1181.72,-219.58 1183.86,-209.2 1175.71,-215.98 1181.72,-219.58"/>
</g>
<!-- institutions_users -->
<g id="node23" class="node">
<title>institutions_users</title>
<ellipse fill="none" stroke="black" cx="471.04" cy="-738" rx="75.41" ry="18"/>
<text text-anchor="middle" x="471.04" y="-732.95" font-family="Times,serif" font-size="14.00">institutions_users</text>
</g>
<!-- institutions_users&#45;&gt;users -->
<g id="edge21" class="edge">
<title>institutions_users&#45;&gt;users</title>
<path fill="none" stroke="black" d="M499.93,-755.03C545.24,-782.7 634.44,-837.18 681.08,-865.66"/>
<polygon fill="black" stroke="black" points="679,-869.1 689.36,-871.33 682.65,-863.13 679,-869.1"/>
</g>
<!-- institutions_users&#45;&gt;institutions -->
<g id="edge22" class="edge">
<title>institutions_users&#45;&gt;institutions</title>
<path fill="none" stroke="black" d="M529.65,-726.24C543.72,-722.33 558.47,-717.31 571.52,-711 614.58,-690.18 657.94,-655.55 684.65,-632.26"/>
<polygon fill="black" stroke="black" points="686.54,-635.38 691.71,-626.13 681.9,-630.13 686.54,-635.38"/>
</g>
<!-- institutions_workgroups -->
<g id="node24" class="node">
<title>institutions_workgroups</title>
<ellipse fill="none" stroke="black" cx="471.04" cy="-684" rx="100.48" ry="18"/>
<text text-anchor="middle" x="471.04" y="-678.95" font-family="Times,serif" font-size="14.00">institutions_workgroups</text>
</g>
<!-- institutions_workgroups&#45;&gt;institutions -->
<g id="edge24" class="edge">
<title>institutions_workgroups&#45;&gt;institutions</title>
<path fill="none" stroke="black" d="M522.16,-668.07C563.47,-654.93 621.71,-636.42 662.58,-623.43"/>
<polygon fill="black" stroke="black" points="663.37,-626.53 671.84,-620.17 661.24,-619.86 663.37,-626.53"/>
</g>
<!-- workgroups -->
<g id="node25" class="node">
<title>workgroups</title>
<ellipse fill="none" stroke="black" cx="712.1" cy="-728" rx="54.93" ry="18"/>
<text text-anchor="middle" x="712.1" y="-722.95" font-family="Times,serif" font-size="14.00">workgroups</text>
</g>
<!-- institutions_workgroups&#45;&gt;workgroups -->
<g id="edge23" class="edge">
<title>institutions_workgroups&#45;&gt;workgroups</title>
<path fill="none" stroke="black" d="M542.47,-696.96C577.65,-703.44 619.68,-711.17 652.98,-717.3"/>
<polygon fill="black" stroke="black" points="652,-720.87 662.47,-719.23 653.27,-713.98 652,-720.87"/>
</g>
<!-- roles -->
<g id="node27" class="node">
<title>roles</title>
<ellipse fill="none" stroke="black" cx="712.1" cy="-1046" rx="28.83" ry="18"/>
<text text-anchor="middle" x="712.1" y="-1040.95" font-family="Times,serif" font-size="14.00">roles</text>
</g>
<!-- roles&#45;&gt;resources -->
<g id="edge34" class="edge">
<title>roles&#45;&gt;resources</title>
<path fill="none" stroke="black" d="M741.1,-1046C767.6,-1046 808.17,-1046 841.34,-1046"/>
<polygon fill="black" stroke="black" points="841.27,-1049.5 851.27,-1046 841.27,-1042.5 841.27,-1049.5"/>
</g>
<!-- searches -->
<g id="node28" class="node">
<title>searches</title>
<ellipse fill="none" stroke="black" cx="471.04" cy="-884" rx="42.14" ry="18"/>
<text text-anchor="middle" x="471.04" y="-878.95" font-family="Times,serif" font-size="14.00">searches</text>
</g>
<!-- searches&#45;&gt;users -->
<g id="edge35" class="edge">
<title>searches&#45;&gt;users</title>
<path fill="none" stroke="black" d="M513.41,-884C557.67,-884 627.38,-884 671.11,-884"/>
<polygon fill="black" stroke="black" points="670.9,-887.5 680.9,-884 670.9,-880.5 670.9,-887.5"/>
</g>
<!-- work_nodes&#45;&gt;institutions -->
<g id="edge54" class="edge">
<title>work_nodes&#45;&gt;institutions</title>
<path fill="none" stroke="black" d="M490.4,-401.2C532.57,-440.72 636.45,-538.05 685.13,-583.67"/>
<polygon fill="black" stroke="black" points="682.32,-585.76 692.01,-590.04 687.1,-580.65 682.32,-585.76"/>
</g>
<!-- work_nodes&#45;&gt;people -->
<g id="edge53" class="edge">
<title>work_nodes&#45;&gt;people</title>
<path fill="none" stroke="black" d="M523.77,-390.59C609.94,-406.21 781,-443.37 858.1,-463.38"/>
<polygon fill="black" stroke="black" points="856.78,-466.92 867.34,-466.09 858.57,-460.15 856.78,-466.92"/>
</g>
<!-- work_nodes&#45;&gt;people -->
<g id="edge56" class="edge">
<title>work_nodes&#45;&gt;people</title>
<path fill="none" stroke="black" d="M511.68,-396.7C591.02,-417.28 768.92,-455.83 852.46,-470.63"/>
<polygon fill="black" stroke="black" points="851.67,-474.22 862.12,-472.47 852.87,-467.32 851.67,-474.22"/>
</g>
<!-- work_nodes&#45;&gt;publications -->
<g id="edge57" class="edge">
<title>work_nodes&#45;&gt;publications</title>
<path fill="none" stroke="black" d="M527.03,-382.12C615.94,-380.32 796.25,-381.84 944.13,-416 961.3,-419.97 979.43,-426.76 994.95,-433.45"/>
<polygon fill="black" stroke="black" points="993.17,-436.94 1003.73,-437.81 996.02,-430.54 993.17,-436.94"/>
</g>
<!-- work_nodes&#45;&gt;standard_terms -->
<g id="edge58" class="edge">
<title>work_nodes&#45;&gt;standard_terms</title>
<path fill="none" stroke="black" d="M526.21,-380.09C594.72,-374.28 715.92,-361.13 816.68,-335 941.87,-302.54 1082.37,-241.86 1151.53,-210.28"/>
<polygon fill="black" stroke="black" points="1152.58,-213.19 1160.21,-205.83 1149.66,-206.83 1152.58,-213.19"/>
</g>
<!-- work_nodes&#45;&gt;liturgical_feasts -->
<g id="edge55" class="edge">
<title>work_nodes&#45;&gt;liturgical_feasts</title>
<path fill="none" stroke="black" d="M489.76,-366.77C514.26,-343.89 560.76,-303.74 607.52,-281 618.95,-275.45 631.66,-270.93 644.15,-267.3"/>
<polygon fill="black" stroke="black" points="644.84,-270.47 653.56,-264.45 642.99,-263.72 644.84,-270.47"/>
</g>
<!-- work_nodes&#45;&gt;standard_titles -->
<g id="edge59" class="edge">
<title>work_nodes&#45;&gt;standard_titles</title>
<path fill="none" stroke="black" d="M511.12,-371.14C538.16,-362.29 574.99,-350.31 607.52,-340 623.57,-334.92 641.04,-329.48 656.99,-324.56"/>
<polygon fill="black" stroke="black" points="657.69,-327.7 666.21,-321.41 655.63,-321.01 657.69,-327.7"/>
</g>
<!-- works&#45;&gt;institutions -->
<g id="edge61" class="edge">
<title>works&#45;&gt;institutions</title>
<path fill="none" stroke="black" d="M483.09,-215.88C501.79,-244.58 540.63,-304.85 571.52,-357 619.01,-437.17 671.54,-534.04 696.45,-580.51"/>
<polygon fill="black" stroke="black" points="693.81,-582 701.62,-589.16 699.98,-578.69 693.81,-582"/>
</g>
<!-- works&#45;&gt;people -->
<g id="edge60" class="edge">
<title>works&#45;&gt;people</title>
<path fill="none" stroke="black" d="M497.95,-187.87C560.4,-169.09 721.1,-142.4 816.68,-218 887.06,-273.66 896.9,-391.59 897.71,-446.75"/>
<polygon fill="black" stroke="black" points="894.22,-446.54 897.77,-456.52 901.22,-446.51 894.22,-446.54"/>
</g>
<!-- works&#45;&gt;people -->
<g id="edge63" class="edge">
<title>works&#45;&gt;people</title>
<path fill="none" stroke="black" d="M504.24,-195.91C570.62,-185.49 724.16,-162.82 816.68,-236 882.63,-288.16 895.42,-394.97 897.44,-446.81"/>
<polygon fill="black" stroke="black" points="893.96,-446.68 897.73,-456.58 900.96,-446.49 893.96,-446.68"/>
</g>
<!-- works&#45;&gt;places -->
<g id="edge64" class="edge">
<title>works&#45;&gt;places</title>
<path fill="none" stroke="black" d="M495.17,-186.38C521.48,-172.8 566.16,-152.07 607.52,-144 755.9,-115.03 827.16,-97.22 944.13,-193 1078.31,-302.87 1159.05,-504.7 1185.3,-578.78"/>
<polygon fill="black" stroke="black" points="1182.32,-579.85 1188.91,-588.14 1188.93,-577.55 1182.32,-579.85"/>
</g>
<!-- works&#45;&gt;publications -->
<g id="edge65" class="edge">
<title>works&#45;&gt;publications</title>
<path fill="none" stroke="black" d="M498.37,-188.29C558.41,-165.63 708.59,-119.11 816.68,-172 926.89,-225.93 997.54,-365.27 1023.68,-425.07"/>
<polygon fill="black" stroke="black" points="1020.76,-426.13 1027.91,-433.94 1027.19,-423.37 1020.76,-426.13"/>
</g>
<!-- works&#45;&gt;standard_terms -->
<g id="edge66" class="edge">
<title>works&#45;&gt;standard_terms</title>
<path fill="none" stroke="black" d="M486.82,-183.09C509.91,-159.55 557.12,-116.45 607.52,-100 749.74,-53.58 796.74,-74.34 944.13,-100 1020.03,-113.22 1103.33,-147.36 1152.22,-169.59"/>
<polygon fill="black" stroke="black" points="1150.57,-173.14 1161.12,-174.14 1153.5,-166.78 1150.57,-173.14"/>
</g>
<!-- works&#45;&gt;liturgical_feasts -->
<g id="edge62" class="edge">
<title>works&#45;&gt;liturgical_feasts</title>
<path fill="none" stroke="black" d="M502.32,-205.97C538.8,-214.36 601.06,-228.68 648.12,-239.51"/>
<polygon fill="black" stroke="black" points="647.29,-243.14 657.82,-241.97 648.86,-236.32 647.29,-243.14"/>
</g>
<!-- works&#45;&gt;standard_titles -->
<g id="edge67" class="edge">
<title>works&#45;&gt;standard_titles</title>
<path fill="none" stroke="black" d="M491.71,-213.43C517.24,-231.55 563.71,-262.49 607.52,-281 620.42,-286.44 634.69,-291.02 648.41,-294.77"/>
<polygon fill="black" stroke="black" points="647.2,-298.34 657.76,-297.48 648.97,-291.56 647.2,-298.34"/>
</g>
<!-- works&#45;&gt;works -->
<g id="edge68" class="edge">
<title>works&#45;&gt;works</title>
<path fill="none" stroke="black" d="M443.28,-209.32C423.58,-221.22 432.84,-235 471.04,-235 501.78,-235 513.78,-226.08 507.03,-216.39"/>
<polygon fill="black" stroke="black" points="509.66,-213.18 499.8,-209.32 505.1,-218.49 509.66,-213.18"/>
</g>
<!-- users_roles -->
<g id="node32" class="node">
<title>users_roles</title>
<ellipse fill="none" stroke="black" cx="471.04" cy="-1019" rx="52.38" ry="18"/>
<text text-anchor="middle" x="471.04" y="-1013.95" font-family="Times,serif" font-size="14.00">users_roles</text>
</g>
<!-- users_roles&#45;&gt;users -->
<g id="edge47" class="edge">
<title>users_roles&#45;&gt;users</title>
<path fill="none" stroke="black" d="M506.44,-1005.37C526.91,-996.09 552.51,-982.36 571.52,-965 592.82,-945.55 584.03,-927.73 607.52,-911 626.13,-897.75 650.75,-891 671.31,-887.56"/>
<polygon fill="black" stroke="black" points="671.56,-890.92 680.95,-886.01 670.55,-883.99 671.56,-890.92"/>
</g>
<!-- users_roles&#45;&gt;roles -->
<g id="edge48" class="edge">
<title>users_roles&#45;&gt;roles</title>
<path fill="none" stroke="black" d="M521.28,-1024.56C566.14,-1029.63 631.47,-1037.01 672.6,-1041.65"/>
<polygon fill="black" stroke="black" points="672.2,-1045.24 682.53,-1042.89 672.98,-1038.29 672.2,-1045.24"/>
</g>
<!-- users_workgroups -->
<g id="node33" class="node">
<title>users_workgroups</title>
<ellipse fill="none" stroke="black" cx="471.04" cy="-830" rx="78.48" ry="18"/>
<text text-anchor="middle" x="471.04" y="-824.95" font-family="Times,serif" font-size="14.00">users_workgroups</text>
</g>
<!-- users_workgroups&#45;&gt;users -->
<g id="edge49" class="edge">
<title>users_workgroups&#45;&gt;users</title>
<path fill="none" stroke="black" d="M528.09,-842.66C572.65,-852.73 633.79,-866.54 672.88,-875.37"/>
<polygon fill="black" stroke="black" points="672.01,-878.98 682.53,-877.77 673.55,-872.15 672.01,-878.98"/>
</g>
<!-- users_workgroups&#45;&gt;workgroups -->
<g id="edge50" class="edge">
<title>users_workgroups&#45;&gt;workgroups</title>
<path fill="none" stroke="black" d="M509.66,-813.95C552.47,-795.68 622.31,-765.88 667.48,-746.61"/>
<polygon fill="black" stroke="black" points="668.74,-749.45 676.56,-742.31 665.99,-743.02 668.74,-749.45"/>
</g>
<!-- versions -->
<g id="node34" class="node">
<title>versions</title>
<ellipse fill="none" stroke="black" cx="84.11" cy="-992" rx="41.63" ry="18"/>
<text text-anchor="middle" x="84.11" y="-986.95" font-family="Times,serif" font-size="14.00">versions</text>
</g>
<!-- versions&#45;&gt;items -->
<g id="edge51" class="edge">
<title>versions&#45;&gt;items</title>
<path fill="none" stroke="black" d="M125.78,-992C155.84,-992 196.62,-992 226.87,-992"/>
<polygon fill="black" stroke="black" points="226.5,-995.5 236.5,-992 226.5,-988.5 226.5,-995.5"/>
</g>
<!-- work_incipits -->
<g id="node35" class="node">
<title>work_incipits</title>
<ellipse fill="none" stroke="black" cx="269.38" cy="-199" rx="61.59" ry="18"/>
<text text-anchor="middle" x="269.38" y="-193.95" font-family="Times,serif" font-size="14.00">work_incipits</text>
</g>
<!-- work_incipits&#45;&gt;works -->
<g id="edge52" class="edge">
<title>work_incipits&#45;&gt;works</title>
<path fill="none" stroke="black" d="M331.37,-199C362.01,-199 398.44,-199 426.26,-199"/>
<polygon fill="black" stroke="black" points="426.24,-202.5 436.24,-199 426.24,-195.5 426.24,-202.5"/>
</g>
</g>
</svg>
